<?xml version="1.0" encoding="utf-8"?>
<!-- Generator: Adobe Illustrator 23.0.1, SVG Export Plug-In . SVG Version: 6.00 Build 0)  -->
<svg version="1.1" id="Слой_1" xmlns="http://www.w3.org/2000/svg" xmlns:xlink="http://www.w3.org/1999/xlink" x="0px" y="0px"
	 viewBox="0 0 141.7 79.2" style="enable-background:new 0 0 141.7 79.2;" xml:space="preserve">
<style type="text/css">
	.st0{fill:none;stroke:#F1367B;stroke-width:3.6594;stroke-linecap:round;stroke-miterlimit:10;}
	.st1{fill:none;stroke:#F1367B;stroke-width:3.659;stroke-linecap:round;stroke-linejoin:round;stroke-miterlimit:10;}
	.st2{fill:none;stroke:#F1367B;stroke-width:19;stroke-linecap:round;stroke-linejoin:round;stroke-miterlimit:10;}
	.st3{fill:none;stroke:#F1367B;stroke-width:3.659;stroke-linecap:round;stroke-miterlimit:10;}
</style>
<ellipse class="st0" cx="52.2" cy="69" rx="9.1" ry="8.4"/>
<line class="st0" x1="65.8" y1="60.9" x2="100.7" y2="60.9"/>
<line class="st0" x1="16" y1="16.9" x2="2" y2="16.9"/>
<line class="st0" x1="15.8" y1="46.4" x2="1.8" y2="46.4"/>
<line class="st0" x1="15.8" y1="31.8" x2="1.8" y2="31.8"/>
<polyline class="st1" points="40.2,24.9 51.6,38.9 70,18.4 "/>
<ellipse class="st0" cx="114.5" cy="69" rx="9.1" ry="8.4"/>
<path class="st0" d="M39.1,60.6H26.8c-0.3,0-2,0.2-3.4-1c-1-0.9-1.4-2-1.4-2.4c0-16.8,0-33.5,0-50.3c0-0.3,0.1-2,1.5-3.3
	c1.4-1.3,3-1.3,3.3-1.3c21.6,0,43.2,0,64.9,0c0.2,0,2.8-0.2,4.3,1.8c1,1.2,1,2.6,1,3.1c0,3.3,0.1,24.4,0,53.4"/>
<path class="st3" d="M97.8,16.3c7.1,0,14.2,0.1,21.3,0.1c0.5,0,1.4,0.1,2.4,0.5c1,0.4,1.7,1,2,1.4c4.6,4.9,9.2,9.7,13.7,14.6
	c0.4,0.3,1.1,1,1.6,2.1c0.3,0.8,0.4,1.5,0.4,2c0,6.9,0,13.7,0,20.6c-0.1,0.4-0.4,1.2-1.1,1.9c-0.8,0.9-1.8,1.2-2.2,1.3
	c-3,0-5.9,0-8.9,0"/>
</svg>
