<?xml version="1.0" encoding="utf-8"?>
<!-- Generator: Adobe Illustrator 23.0.1, SVG Export Plug-In . SVG Version: 6.00 Build 0)  -->
<svg version="1.1" id="Слой_1" xmlns="http://www.w3.org/2000/svg" xmlns:xlink="http://www.w3.org/1999/xlink" x="0px" y="0px"
	 viewBox="0 0 117 117" style="enable-background:new 0 0 117 117;" xml:space="preserve">
<style type="text/css">
	.st0{fill:none;stroke:#F1367B;stroke-width:4;stroke-linecap:round;stroke-miterlimit:10;}
	.st1{fill:none;stroke:#F1367B;stroke-width:4;stroke-linecap:round;stroke-linejoin:round;stroke-miterlimit:10;}
</style>
<ellipse class="st0" cx="43.6" cy="84.1" rx="7.4" ry="7.3"/>
<line class="st0" x1="54.6" y1="77" x2="82.8" y2="77"/>
<line class="st0" x1="14.3" y1="38.7" x2="3" y2="38.7"/>
<line class="st0" x1="14.2" y1="64.4" x2="2.9" y2="64.4"/>
<line class="st0" x1="14.2" y1="51.7" x2="2.9" y2="51.7"/>
<polyline class="st1" points="33.9,45.6 43.1,57.9 58,40 "/>
<ellipse class="st0" cx="94" cy="84.1" rx="7.4" ry="7.3"/>
<path class="st0" d="M33,76.8h-9.9c-0.2,0-1.6,0.2-2.7-0.9c-0.8-0.8-1.1-1.7-1.1-2.1c0-14.7,0-29.2,0-43.9c0-0.3,0.1-1.7,1.2-2.9
	s2.4-1.1,2.7-1.1c17.5,0,34.9,0,52.5,0c0.2,0,2.3-0.2,3.5,1.6c0.8,1,0.8,2.3,0.8,2.7c0,2.9,0.1,21.3,0,46.6"/>
<path class="st0" d="M80.5,38.1c5.7,0,11.5,0.1,17.2,0.1c0.4,0,1.1,0.1,1.9,0.4c0.8,0.3,1.4,0.9,1.6,1.2c3.7,4.3,7.4,8.5,11.1,12.7
	c0.3,0.3,0.9,0.9,1.3,1.8c0.2,0.7,0.3,1.3,0.3,1.7c0,6,0,11.9,0,18c-0.1,0.3-0.3,1-0.9,1.7c-0.6,0.8-1.5,1-1.8,1.1
	c-2.4,0-4.8,0-7.2,0"/>
</svg>
