<?xml version="1.0" encoding="utf-8"?>
<!-- Generator: Adobe Illustrator 23.0.1, SVG Export Plug-In . SVG Version: 6.00 Build 0)  -->
<svg version="1.1" id="Слой_1" xmlns="http://www.w3.org/2000/svg" xmlns:xlink="http://www.w3.org/1999/xlink" x="0px" y="0px"
	 viewBox="0 0 200 200" style="enable-background:new 0 0 200 200;" xml:space="preserve">
<style type="text/css">
	.st0{fill:none;stroke:#F1367B;stroke-width:8;stroke-linecap:round;stroke-miterlimit:10;}
	.st1{fill:none;stroke:#F1367B;stroke-width:8;stroke-linecap:round;stroke-linejoin:round;stroke-miterlimit:10;}
</style>
<path class="st0" d="M75.4,195H22c-0.8,0.1-7.3,0.8-12.3-4.1c-4.6-4.5-4.5-10.3-4.4-11.2c0-53.4,0-106.9,0-160.3
	c0.2-1.4,0.9-5.6,4.4-9.2C14.2,5.6,19.8,5.4,21,5.3c41.4,0,82.8,0,124.3,0c1,0.2,5.9,1,9.2,5.4c2.5,3.4,2.7,6.9,2.7,8.2
	c0,29.7,0,59.5,0,89.2"/>
<line class="st0" x1="29.9" y1="39.7" x2="129.6" y2="39.7"/>
<line class="st0" x1="29.9" y1="78.9" x2="129.6" y2="78.9"/>
<line class="st0" x1="29.9" y1="120.7" x2="60.5" y2="120.7"/>
<polyline class="st1" points="109.9,149.7 141.2,180.3 180.3,120.7 "/>
<g>
</g>
<g>
</g>
<g>
</g>
<g>
</g>
<g>
</g>
</svg>
