<?xml version="1.0" encoding="utf-8"?>
<!-- Generator: Adobe Illustrator 23.0.1, SVG Export Plug-In . SVG Version: 6.00 Build 0)  -->
<svg version="1.1" id="Слой_1" xmlns="http://www.w3.org/2000/svg" xmlns:xlink="http://www.w3.org/1999/xlink" x="0px" y="0px"
	 viewBox="0 0 500 500" style="enable-background:new 0 0 500 500;" xml:space="preserve">
<style type="text/css">
	.st0{fill:#F1367B;}
</style>
<g id="Layer_2">
	<path class="st0" d="M409.9,150.6h-84.4c17.9-17,17.9-45.9,1.3-64.2c-7.6-9.2-19.2-14.4-32-14.4c-16.6,1.3-30.8,11.8-38.4,26.2
		C248.7,83.8,234.6,73.3,218,72c-24.3,0-44.8,19.7-44.8,45.9c0,13.1,5.1,24.9,14.1,32.7h-84.5c-3.8,0-6.4,2.7-6.4,6.5v56.3
		c0,1.3,1.3,4,2.5,5.2c1.3,1.3,2.5,1.3,3.8,1.3h5.1V393c0,4,2.5,6.5,6.4,6.5h285.4c3.8,0,6.4-2.7,6.4-6.5v-173h3.8
		c3.8,0,6.4-2.7,6.4-6.5v-56.3C416.4,153.1,413.7,150.6,409.9,150.6z M403.6,163.6v43.3h-119v-43.3H403.6z M256.4,163.6h15.4v43.3
		H241v-43.3H256.4z M271.7,219.9v166.4H241V219.9H271.7z M294.7,85c17.9,0,32,14.4,32,32.7s-14.1,32.7-32,32.7h-32v-36.7
		C265.4,108.6,275.6,85,294.7,85z M185.9,117.8c0-18.4,14.1-32.7,32-32.7c19.2,0,29.5,23.6,32,28.9v36.7h-32
		C200,150.6,185.9,136.1,185.9,117.8z M109.2,163.6h119v43.3h-119V163.6z M120.7,219.9h107.5v166.4H120.7V219.9z M392,386.4H284.6
		V219.9h107.5L392,386.4L392,386.4z"/>
	<path class="st0" d="M346,373.3h25.6c3.8,0,6.4-2.7,6.4-6.5v-39.3c0-4-2.5-6.5-6.4-6.5s-6.4,2.7-6.4,6.5v32.7H346
		c-3.8,0-6.4,2.7-6.4,6.5C339.6,370.6,342.2,373.3,346,373.3z"/>
</g>
</svg>
