<?xml version="1.0" encoding="utf-8"?>
<!-- Generator: Adobe Illustrator 23.0.1, SVG Export Plug-In . SVG Version: 6.00 Build 0)  -->
<svg version="1.1" id="Группа_1" xmlns="http://www.w3.org/2000/svg" xmlns:xlink="http://www.w3.org/1999/xlink" x="0px"
	 y="0px" viewBox="0 0 157.7 19.8" style="enable-background:new 0 0 157.7 19.8;" xml:space="preserve">
<style type="text/css">
	.st0{fill-rule:evenodd;clip-rule:evenodd;fill:#FFFFFF;fill-opacity:0;stroke:#FFFFFF;stroke-linejoin:round;}
	.st1{fill-rule:evenodd;clip-rule:evenodd;fill:#FFFFFF;stroke:#FFFFFF;stroke-miterlimit:10;}
</style>
<path id="ция_" class="st0" d="M105,17.4h11.8v1.9h3.5v-5.6h-1.7V0.6h-4.4v12.8h-4.9V0.6H105L105,17.4L105,17.4z M134.5,9.1v8.3
	h4.5V0.5h-1.6l-8.5,8.3V0.6h-4.4v16.8h1.5L134.5,9.1z M143,16.7v0.6h4.8l2.9-4.9h2.2v4.9h4.3V0.6h-7.4c-6.6,0-7.8,8-3.6,10.8
	L143,16.7z M149.8,8.6c-2.3,0-2.4-4.1,0-4.2c1,0,2.1,0,3.1,0v4.2H149.8z"/>
<path id="Floren_" class="st1" d="M9.8,11.9V8.1H4.4V4.4h6.1V0.6H0v16.8h4.4v-5.4H9.8z M19.5,0.6h-4.3v16.8h10.4v-3.9h-6.1L19.5,0.6
	L19.5,0.6z M46.2,9C46.2-2.6,29-2.6,29,9C29,20.6,46.2,20.6,46.2,9L46.2,9z M33.4,9c-0.2-2.3,1.6-4.4,3.9-4.5
	c2.3-0.2,4.4,1.6,4.5,3.9c0,0.2,0,0.4,0,0.6c0.2,2.3-1.6,4.4-3.9,4.5c-2.3,0.2-4.4-1.6-4.5-3.9C33.4,9.4,33.4,9.2,33.4,9L33.4,9z
	 M61.8,11.4c4.2-2.9,3-10.8-3.6-10.8h-7.4v16.8h4.3v-4.9h2.2l2.9,4.9h4.8v-0.6L61.8,11.4z M58.2,8.6h-3.1V4.4c1,0,2.1,0,3.1,0
	C60.7,4.4,60.6,8.6,58.2,8.6L58.2,8.6z M79.6,0.6H69.1v16.8h10.7v-3.8h-6.4v-3h5.7V6.8h-5.7V4.4h6.2L79.6,0.6L79.6,0.6z M97.9,17.4
	h1.5V0.6H95v8.2l-8.5-8.3h-1.6v16.9h4.4V9.1L97.9,17.4z"/>
</svg>
