<?xml version="1.0" encoding="utf-8"?>
<!-- Generator: Adobe Illustrator 23.0.1, SVG Export Plug-In . SVG Version: 6.00 Build 0)  -->
<svg version="1.1" id="Слой_1" xmlns="http://www.w3.org/2000/svg" xmlns:xlink="http://www.w3.org/1999/xlink" x="0px" y="0px"
	 viewBox="0 0 257.3 257.6" style="enable-background:new 0 0 257.3 257.6;" xml:space="preserve">
<style type="text/css">
	.st0{fill:none;stroke:#F1367B;stroke-width:5;stroke-miterlimit:10;}
	.st1{fill:#FFFFFF;stroke:#F1367B;stroke-width:5;stroke-miterlimit:10;}
	.st2{fill:none;stroke:#F1367B;stroke-width:3;stroke-miterlimit:10;}
	.st3{fill:none;stroke:#F1367B;stroke-width:6;stroke-miterlimit:10;}
</style>
<path class="st0" d="M104.7,87.5c-1.2-3-2.8-7.9-2.6-14.1c0.1-3.2,0.7-5.9,1.3-8c29.1,9.4,47.3,30,45.9,49.1
	c-0.3,3.9-1.6,10.8-7.9,18.6c-9.1,6.9-16.9,7.8-20.9,7.9c-19.2,0.3-39-18.1-46.4-46.4c1.4-0.7,14.3-7.1,29.7-5.7
	c2.5,0.2,5,0.7,7.6,1.4c3.4,0.9,6.7,2.3,10.1,4.3c3.5,2,11.1,9.4,18.7,21.3"/>
<path class="st0" d="M179.4,56.8c1.2-3,3.6-7.6,8.1-11.8c2.3-2.1,4.6-3.7,6.6-4.8c14,27.2,12.2,54.7-2.3,67.2
	c-3,2.6-8.8,6.5-18.8,7.6c-11.3-1.6-17.5-6.4-20.4-9.2c-13.9-13.4-14.8-40.3,0-65.6c1.5,0.5,15.2,5.1,25,17c1.6,1.9,3.1,4,4.4,6.4
	c1.7,3,3.1,6.4,4.1,10.1c1,3.9,1.2,14.5-1.8,28.3"/>
<path class="st0" d="M64.4,171.7c-3,1.2-7.6,3.6-11.8,8.1c-2.1,2.3-3.7,4.6-4.8,6.6c27.2,14,54.7,12.2,67.2-2.3
	c2.6-3,6.5-8.8,7.6-18.8c-1.6-11.3-6.4-17.5-9.2-20.4c-13.4-13.9-40.3-14.8-65.6,0c0.5,1.5,5.1,15.2,17,25c1.9,1.6,4,3.1,6.4,4.4
	c3,1.7,6.4,3.1,10.1,4.1c3.9,1,14.5,1.2,28.3-1.8"/>
<line class="st1" x1="141.2" y1="133.4" x2="191.6" y2="179.9"/>
<path class="st0" d="M172,115.2c-2.9,4.6-7.4,13.4-6.8,26.1c1.1,21.5,16.1,38.5,20.4,43.1"/>
<path class="st0" d="M195.4,174c-3.8-3.8-15.1-13.9-33-16.7c-20.1-3.2-35.3,4.8-39.8,7.3"/>
<path class="st2" d="M175.5,143.6c1.1-6.7,4.3-20.2,15.5-27.4c1-0.6,2-1.2,3.2-1.8c1.6,4.6,3.8,9.8,6.9,15.3
	c7,12.3,15.6,20.8,22.1,26.2c-3.3-1.2-8.3-3.5-13.2-7.8c-2.8-2.5-4.5-4.8-6.3-7.2c-2.6-3.4-5.9-8.5-9-15.4c-2.2,0.7-4.9,1.8-7.6,3.6
	C180,133.7,176.8,140.4,175.5,143.6z"/>
<path class="st2" d="M236.1,70.3"/>
<path class="st2" d="M156.6,164.7c-6.8,0.2-20.6,1.6-29.2,11.7c-0.8,0.9-1.5,1.9-2.2,2.9c4.4,2.2,9.2,5.1,14.2,8.9
	c11.3,8.6,18.6,18.2,23,25.4c-0.7-3.4-2.3-8.7-6-14.1c-2.1-3.1-4.2-5.1-6.3-7.2c-3-3-7.7-7-14.1-10.9c1-2.1,2.4-4.6,4.5-7
	C146.2,167.8,153.3,165.6,156.6,164.7z"/>
<path class="st3" d="M16,128.8c0.6,9.9,3.5,40.5,27.3,68.2c4.4,5.1,29,32.9,71.2,38.7c4.4,0.6,64.4,7.8,103.9-39.3
	c27.4-32.6,35.1-79.5,16.7-120C216.7,35.8,175.6,9.6,130.6,9.9"/>
<circle class="st0" cx="16.3" cy="124" r="5.3"/>
<circle class="st0" cx="125.3" cy="10" r="5.3"/>
<g>
</g>
<g>
</g>
<g>
</g>
<g>
</g>
<g>
</g>
</svg>
