<svg id="Группа_1" data-name="Группа 1" xmlns="http://www.w3.org/2000/svg" width="157.685" height="19.75" viewBox="0 0 157.685 19.75">
  <defs>
    <style>
      .cls-1 {
        fill: #f26d9e;
        fill-opacity: 0;
        stroke: #f1367b;
        stroke-linejoin: round;
        stroke-width: 1px;
      }

      .cls-1, .cls-2 {
        fill-rule: evenodd;
      }

      .cls-2 {
        fill: #f1367b;
      }
    </style>
  </defs>
  <path id="ция_" data-name="ция  " class="cls-1" d="M984.136,485.553h11.833v1.9H999.5v-5.617h-1.705V468.751H993.4v12.841h-4.872V468.751h-4.393v16.8Zm29.444-8.257v8.257h4.45V468.679h-1.56l-8.5,8.305v-8.233h-4.39v16.826h1.53Zm8.52,7.633v0.624h4.8l2.88-4.945h2.24v4.945h4.29v-16.8h-7.37c-6.6.024-7.8,7.969-3.55,10.849Zm6.84-8.185c-2.32,0-2.44-4.128,0-4.152,1.01-.024,2.07,0,3.08,0v4.152h-3.08Z" transform="translate(-879.125 -468.188)"/>
  <path id="Floren_" data-name="Floren  " class="cls-2" d="M888.905,480.1v-3.84h-5.4v-3.672h6.1v-3.841H879.136v16.8h4.369V480.1h5.4Zm9.743-11.353h-4.32v16.8h10.417v-3.865h-6.1V468.751Zm26.689,8.425c0-11.617-17.233-11.617-17.233,0C908.1,488.817,925.337,488.817,925.337,477.176Zm-12.817,0a4.224,4.224,0,1,1,8.425,0A4.224,4.224,0,1,1,912.52,477.176Zm28.393,2.424c4.248-2.88,3.048-10.825-3.552-10.849h-7.369v16.8h4.3v-4.945h2.232l2.881,4.945h4.8v-0.624Zm-3.552-2.856h-3.073v-4.152c1.008,0,2.064-.024,3.073,0C939.809,472.616,939.689,476.744,937.361,476.744Zm21.36-7.993H948.232v16.8h10.705v-3.817H952.5v-2.952h5.712v-3.816H952.5v-2.376h6.217v-3.841Zm18.264,16.826h1.536V468.751h-4.393v8.233l-8.5-8.305h-1.561v16.874h4.441V477.3Z" transform="translate(-879.125 -468.188)"/>
</svg>
