<?xml version="1.0" encoding="utf-8"?>
<!-- Generator: Adobe Illustrator 23.0.1, SVG Export Plug-In . SVG Version: 6.00 Build 0)  -->
<svg version="1.1" id="Layer_1" xmlns="http://www.w3.org/2000/svg" xmlns:xlink="http://www.w3.org/1999/xlink" x="0px" y="0px"
	 viewBox="0 0 64 64" style="enable-background:new 0 0 64 64;" xml:space="preserve">
<style type="text/css">
	.st0{fill:#F1367B;}
</style>
<title></title>
<path class="st0" d="M27,25c-0.2,0-0.4,0-0.6,0.1c0.5,0.2,0.7,0.8,0.5,1.3s-0.8,0.7-1.3,0.5c-0.2-0.1-0.4-0.3-0.5-0.5
	C25,26.6,25,26.8,25,27c0,1.1,0.9,2,2,2s2-0.9,2-2S28.1,25,27,25z"/>
<path class="st0" d="M37,25c-0.2,0-0.4,0-0.6,0.1c0.4,0.2,0.6,0.5,0.6,0.9c0,0.6-0.4,1-1,1c-0.4,0-0.7-0.2-0.9-0.6
	C35,26.6,35,26.8,35,27c0,1.1,0.9,2,2,2s2-0.9,2-2S38.1,25,37,25z"/>
<path class="st0" d="M5.7,51.1C2.2,52.3,0,53.8,0,56v5c0,1.7,1.3,3,3,3h58c1.7,0,3-1.3,3-3v-5c0-2.2-2.2-3.7-5.7-4.9
	C64.5,47,64,38,64,37.9c0-0.6-0.5-1-1.1-0.9c-0.3,0-0.6,0.2-0.8,0.4c0,0-1.8,2.5-4.2,2.5c-4.1,0-5-7.1-5-13C53,8.6,46.3,0,32,0
	S11,8.6,11,27c0,5.9-0.9,13-5,13c-2.4,0-4.2-2.5-4.2-2.5c-0.3-0.5-0.9-0.6-1.4-0.3C0.2,37.3,0,37.6,0,37.9C0,38-0.5,47,5.7,51.1z
	 M2.2,41.6c2,3.2,4.9,4.9,10.8,4.9c2.2,0.1,4.4-0.8,5.9-2.4c1.5-1.8,2.4-4,2.5-6.3c0.3,0.3,0.5,0.6,0.9,0.9s0.5,0.5,0.7,0.7v7.3l0,0
	c-2.1,0.7-4.2,1.2-6.4,1.6c-2.6,0.5-5.5,1.2-8.1,1.9C4.2,48.6,2.7,44.6,2.2,41.6z M40.3,37.3c-0.3,0.3-0.7,0.7-1,1.1l0,0
	C37.8,40,35.9,42,32,42s-5.8-2-7.3-3.6l0,0c-0.3-0.4-0.7-0.7-1-1.1l0,0c1.7,0.9,3.4,1.5,5.3,1.9c0.1,1,1,1.8,2,1.8h2
	c1.1,0,2-0.9,2-2s-0.9-2-2-2h-2c-0.8,0-1.5,0.5-1.8,1.2c-2.6-0.6-5.1-1.7-7.3-3.2c-1.4-2.3-1.9-5.1-1.9-10v-0.1
	c6.5-0.6,15-3.9,19.4-9.3c2.9,2.3,4.6,5.7,4.6,9.4C44,31.6,43.1,34.5,40.3,37.3z M25,47v-5.6c1.9,1.7,4.4,2.6,7,2.6
	c2.6,0,5.1-0.9,7-2.6V49c0,3.9-3.1,7-7,7s-7-3.1-7-7V47z M62,56v5c0,0.6-0.4,1-1,1H3c-0.6,0-1-0.4-1-1v-5c0-2.6,9.7-4.6,14.9-5.7
	c2.7-0.6,4.6-1,5.9-1.4l0,0h0.2V49c0,5,4,9,9,9s9-4,9-9v-0.2h0.2l0,0c1.3,0.4,3.1,0.8,5.8,1.4C52.3,51.4,62,53.4,62,56L62,56z
	 M55.6,50.3c-2.6-0.7-5.5-1.4-8.1-1.9c-2.2-0.4-4.4-0.9-6.5-1.7l0,0v-7.3c0.2-0.3,0.5-0.5,0.7-0.7s0.6-0.6,0.8-0.9
	c0.2,2.3,1,4.5,2.5,6.3c1.5,1.6,3.7,2.5,5.9,2.4c5.9,0,8.7-1.6,10.7-4.8C61.2,44.7,59.7,48.6,55.6,50.3L55.6,50.3z M13,27
	c0-11.6,2.2-25,19-25c8.8,0,19,2.8,19,25c0,10,2.3,15,7,15c1,0,2-0.3,2.8-0.8c-1.8,2.9-4.5,4.3-9.8,4.3c-1.9,0.1-3.8-0.7-5.2-2.1
	c-1.8-2-2.3-5-2.3-6.8c1.8-2.7,2.5-6,2.5-11.6c0-4.7-2.3-9-6.2-11.6c-0.4-0.3-1.1-0.2-1.4,0.3c-4,5.6-13,9-19.4,9.3
	c-0.5,0-1,0.4-1,0.9c0,0.4,0,0.8,0,1.1c0,5.6,0.6,8.9,2.5,11.6c-0.1,1.8-0.5,4.8-2.3,6.8c-1.4,1.4-3.3,2.2-5.2,2.1
	c-5.4,0-8-1.4-9.8-4.3C4,41.7,5,42,6,42C10.7,42,13,37,13,27z"/>
</svg>
