<?xml version="1.0" encoding="utf-8"?>
<!-- Generator: Adobe Illustrator 23.0.1, SVG Export Plug-In . SVG Version: 6.00 Build 0)  -->
<svg version="1.1" id="Слой_1" xmlns="http://www.w3.org/2000/svg" xmlns:xlink="http://www.w3.org/1999/xlink" x="0px" y="0px"
	 viewBox="0 0 48 48" style="enable-background:new 0 0 48 48;" xml:space="preserve">
<style type="text/css">
	.st0{fill:#F1367B;}
</style>
<g>
	<path id="i-419" class="st0" d="M46.6,37.2l-9-6c-1.5-1-2.9-1-4.2,0.1c-3.5,2.9-5.6,2-5.9,1.9c-2-1-3.9-1.9-6.7-4.8
		c-3.6-3.6-4.9-5.9-5.8-7.7c-0.4-0.7-0.8-3.3,1.6-5.9c1.1-1.2,1.3-2.7,0.3-4.2c-0.7-1.2-0.7-1.2-1.3-2c-0.6-0.8-1.7-2.5-4.7-7
		C10.2,0.5,9.2,0,8,0C6.6,0,5.9,0.7,5.3,1.3l-3,3C0.2,6.4,0,7.6,0,9c0,1.7,2.5,12.9,14.3,24.7C26.1,45.5,37.3,48,39,48h0.1
		c1.4,0,2.6-0.2,4.7-2.3l3-3c0.6-0.6,1.3-1.3,1.3-2.7C48,38.8,47.5,37.8,46.6,37.2z M45.3,41.3l-3,3C40.6,46,39.9,46,39,46
		c-0.1,0-10.9-1.3-23.3-13.7C3.4,20,2,9.1,2,9c0-0.9,0-1.6,1.7-3.3l3-3C7.2,2.2,7.4,2,8,2c0.7,0,0.9,0.2,1.2,0.6
		c3,4.5,4.1,6.2,4.7,7c0.6,0.8,0.6,0.8,1.3,2c0.6,0.9,0.3,1.4-0.1,1.8c-3.1,3.3-2.7,6.8-2,8.1c1,2,2.4,4.5,6.2,8.3
		c3.1,3.1,5.2,4.2,7.3,5.2c0.6,0.3,1.3,0.4,2.1,0.4c1.3,0,3.4-0.4,6-2.6c0.4-0.3,0.6-0.3,0.8-0.3c0.3,0,0.6,0.1,1,0.4l9,6
		c0.3,0.2,0.6,0.5,0.6,1.2C46,40.6,45.8,40.8,45.3,41.3z"/>
</g>
</svg>
