<?xml version="1.0" encoding="utf-8"?>
<!-- Generator: Adobe Illustrator 23.0.1, SVG Export Plug-In . SVG Version: 6.00 Build 0)  -->
<svg version="1.1" id="Слой_1" xmlns="http://www.w3.org/2000/svg" xmlns:xlink="http://www.w3.org/1999/xlink" x="0px" y="0px"
	 viewBox="0 0 295.2 202.1" style="enable-background:new 0 0 295.2 202.1;" xml:space="preserve">
<style type="text/css">
	.st0{fill:none;stroke:#F1367B;stroke-width:4;stroke-linecap:round;stroke-miterlimit:10;}
	.st1{fill:none;stroke:#F1367B;stroke-width:4;stroke-linecap:round;stroke-miterlimit:10;stroke-dasharray:11.8174,11.8174;}
	.st2{fill:#F1367B;}
</style>
<g>
	<g>
		<path class="st0" d="M2,170.5c1.3,0.7,3.1,1.6,5.4,2.7"/>
		<path class="st1" d="M18.1,178.1c32.9,14.2,103.2,37.8,157.2,6.5c9.5-5.5,30.4-17.6,36.8-41.1c7.4-27-8.2-54.9-26.3-70.2
			c-32.7-27.6-74.2-14.4-81.4-11.9c-8.6,3-23.6,8.2-30,22.4c-4.3,9.6-2.9,19.2-2.4,22.3c2,12.4,8.9,20.4,11.8,23.4
			c9.8,6.9,37.2,24.4,74.7,22.8c63.2-2.7,97.6-57.1,100.7-62.1c7.2-11.6,15.3-27.1,21.8-46.3c0-0.1,0.1-0.3,0.1-0.4"/>
		<path class="st0" d="M282.9,37.8c0.6-1.9,1.1-3.9,1.7-5.8"/>
		<g>
			<path class="st2" d="M282.5,38.9l-15.9,5.6l-0.2-0.5l14-21.1c3.4-7.6,6.9-15.3,10.3-22.9c0.1,8.4,0.1,16.8,0.2,25.1l4.3,24.9
				l-0.3,0.4L282.5,38.9z"/>
		</g>
	</g>
</g>
</svg>
