<?xml version="1.0" encoding="utf-8"?>
<!-- Generator: Adobe Illustrator 23.0.1, SVG Export Plug-In . SVG Version: 6.00 Build 0)  -->
<svg version="1.1" id="Слой_1" xmlns="http://www.w3.org/2000/svg" xmlns:xlink="http://www.w3.org/1999/xlink" x="0px" y="0px"
	 viewBox="0 0 284.3 165.2" style="enable-background:new 0 0 284.3 165.2;" xml:space="preserve">
<style type="text/css">
	.st0{fill:none;stroke:#F1367B;stroke-width:4;stroke-linecap:round;stroke-miterlimit:10;}
	.st1{fill:none;stroke:#F1367B;stroke-width:4;stroke-linecap:round;stroke-miterlimit:10;stroke-dasharray:12.011,12.011;}
	.st2{fill:#F1367B;}
</style>
<g>
	<g>
		<path class="st0" d="M2,85.2c0.6-1.4,1.4-3.3,2.4-5.5"/>
		<path class="st1" d="M9.7,68.9c8.4-16.4,22.5-39.9,46.4-54C81.7-0.2,108.9,1.3,122.8,3.2C130,4,143,6.5,156.5,15.1
			c11.1,7,18.1,15.3,22,20.8c15.4,22.9,15.4,52.9,0,75.2c-14.3,20.8-39.5,31.6-64.9,27.9c-24.1-4.4-40.9-22.4-41.2-40.7
			c-0.4-22.9,25.1-37,28.2-38.7c10.9-6.1,21.4-7.2,27.3-7.4c15.8-0.9,39.1,0,64.3,10.1c35.7,14.3,58.6,40.2,72.8,62.7"/>
		<path class="st0" d="M268.2,130.1c1,1.8,2,3.5,2.9,5.2"/>
		<g>
			<path class="st2" d="M267.7,129l9.5-14l0.5,0.3l1.3,25.3c1.8,8.2,3.5,16.4,5.3,24.6c-5-6.7-10.1-13.4-15.1-20.1L251,127.6v-0.5
				L267.7,129z"/>
		</g>
	</g>
</g>
</svg>
