<?xml version="1.0" encoding="utf-8"?>
<!-- Generator: Adobe Illustrator 23.0.1, SVG Export Plug-In . SVG Version: 6.00 Build 0)  -->
<svg version="1.1" id="Слой_1" xmlns="http://www.w3.org/2000/svg" xmlns:xlink="http://www.w3.org/1999/xlink" x="0px" y="0px"
	 viewBox="0 0 292.6 258.9" style="enable-background:new 0 0 292.6 258.9;" xml:space="preserve">
<style type="text/css">
	.st0{fill:none;stroke:#F1367B;stroke-width:4;stroke-linecap:round;stroke-miterlimit:10;}
	.st1{fill:none;stroke:#F1367B;stroke-width:4;stroke-linecap:round;stroke-miterlimit:10;stroke-dasharray:11.9855,11.9855;}
	.st2{fill:#F1367B;}
</style>
<g>
	<g>
		<path class="st0" d="M2,74.5c0.6-1.4,1.4-3.2,2.5-5.4"/>
		<path class="st1" d="M10.3,58.6c9.2-14.9,25.6-35.2,52.8-46.9C80.9,4,97.3,2.5,108.4,2.6c25.2-3.3,49.7,7,63.2,26.7
			c14.3,21,10.1,44.1,9.1,48.8c-2.8,12-9.8,34.3-28.1,56.1c-15.9,19.1-33.6,29.5-44.2,34.7c-21.7,8.3-45.6,5.6-61.8-8.1
			c-22.4-18.9-27-56.4-6.7-85.6c25.5-38.1,69.1-59.3,113-54.4c54.6,6.1,83.3,49.6,87,55.4c10.4,15.8,23.6,40.1,31.2,71.9
			c6,24.8,7,47.6,5.8,66.9"/>
		<path class="st0" d="M276.6,221c-0.2,2-0.4,4-0.6,6"/>
		<g>
			<path class="st2" d="M276.7,219.8l15.7-6.3l0.2,0.5l-13.1,21.6c-3.1,7.8-6.3,15.6-9.4,23.3c-0.4-8.4-0.8-16.7-1.3-25.1l-5.3-24.7
				l0.3-0.4L276.7,219.8z"/>
		</g>
	</g>
</g>
</svg>
