<?xml version="1.0" encoding="utf-8"?>
<!-- Generator: Adobe Illustrator 23.0.1, SVG Export Plug-In . SVG Version: 6.00 Build 0)  -->
<svg version="1.1" id="Слой_1" xmlns="http://www.w3.org/2000/svg" xmlns:xlink="http://www.w3.org/1999/xlink" x="0px" y="0px"
	 viewBox="0 0 512 512" style="enable-background:new 0 0 512 512;" xml:space="preserve">
<style type="text/css">
	.st0{fill:#F1367B;}
	.st1{fill:none;}
</style>
<g id="Layer_1">
</g>
<path class="st0" d="M137.2,372.6c0.3,0.3,0.5,0.5,0.9,0.8c31.6,31.2,75.1,50.4,123,50.4c21,0,41.7-3.7,61.1-11
	c13.6,15.2,33.2,24.6,55.1,24.6c40.8,0,74-33.1,74-73.7c0-22.1-9.8-42-25.5-55.6c6.8-18.8,10.3-38.6,10.3-58.9
	c0-47.7-19.3-90.9-50.6-122.5c-0.2-0.3-0.4-0.6-0.8-0.9c-0.3-0.3-0.5-0.5-0.9-0.8c-31.6-31.2-75.1-50.4-123-50.4
	s-91.3,19.2-123,50.4c-0.3,0.2-0.6,0.4-0.9,0.8c-0.3,0.3-0.5,0.5-0.8,0.9c-31.3,31.5-50.6,74.8-50.6,122.5s19.3,90.9,50.6,122.5
	C136.7,372,136.9,372.4,137.2,372.6z M435.3,363.7c0,31.8-26,57.6-57.8,57.6s-57.8-25.9-57.8-57.6s26-57.6,57.8-57.6
	S435.3,331.8,435.3,363.7z M377.3,289.9c-40.8,0-74,33.1-74,73.7c0,12.9,3.3,24.9,9.2,35.5c-13.9,4.7-28.5,7.5-43.3,8.3v-28.8
	c0-4.4-3.7-8.1-8.1-8.1s-8.1,3.7-8.1,8.1v28.8c-37.8-1.9-72.1-17-98.4-40.6l20.4-20.3c3.1-3.1,3.1-8.3,0-11.4
	c-3.1-3.1-8.3-3.1-11.4,0l-20.4,20.3c-23.8-26.2-39-60.4-40.8-98h28.9c4.4,0,8.1-3.7,8.1-8.1c0-4.4-3.7-8.1-8.1-8.1h-28.9
	c1.9-37.6,17-71.8,40.8-98l20.4,20.3c1.6,1.6,3.7,2.4,5.7,2.4c2.1,0,4.1-0.8,5.7-2.4c3.1-3.1,3.1-8.3,0-11.4l-20.4-20.3
	C180.9,108,215.2,93,253,91.2V120c0,4.4,3.7,8.1,8.1,8.1s8.1-3.7,8.1-8.1V91.2c37.8,1.9,72.1,17,98.4,40.6l-20.4,20.3
	c-3.1,3.1-3.1,8.3,0,11.4c1.6,1.6,3.7,2.4,5.7,2.4s4.1-0.8,5.7-2.4l20.4-20.3c23.8,26.2,39,60.4,40.8,98h-28.9
	c-4.4,0-8.1,3.7-8.1,8.1c0,4.4,3.7,8.1,8.1,8.1h28.9c-0.8,14.1-3.2,27.9-7.7,41.3C401.8,293,389.9,289.9,377.3,289.9z"/>
<path class="st0" d="M261.1,158.7c-4.4,0-8.1,3.7-8.1,8.1v86.2l-41.9,41.7c-3.1,3.1-3.1,8.3,0,11.4c1.6,1.6,3.7,2.4,5.7,2.4
	c2.1,0,4.1-0.8,5.7-2.4l44.2-44.1c1.5-1.5,2.4-3.5,2.4-5.7v-89.5C269.2,162.3,265.5,158.7,261.1,158.7z"/>
<g>
	<rect x="344.2" y="339.9" class="st1" width="79.7" height="67.7"/>
</g>
<g>
	<rect x="346.9" y="339.9" class="st1" width="107.4" height="74.1"/>
	<path class="st0" d="M357.9,361.3h4.3c1.6,0,2.8-0.5,3.7-1.7s1.2-2.7,1.2-4.6c0-1.8-0.4-3.2-1.2-4.3c-0.8-1.1-1.8-1.5-3.1-1.5
		c-1.3,0-2.3,0.4-3,1.4c-0.8,1-1.2,2.1-1.2,3.7h-9c0-2.4,0.5-4.5,1.6-6.4c1.1-1.9,2.7-3.3,4.6-4.4s4.2-1.6,6.6-1.6
		c4.2,0,7.6,1.2,9.9,3.5s3.6,5.5,3.6,9.6c0,2-0.5,4-1.6,5.8s-2.5,3.1-4.3,4.1c2.2,1,3.8,2.3,4.9,4.2c1.1,1.9,1.6,4.1,1.6,6.6
		c0,4.1-1.3,7.3-3.9,9.8s-6,3.7-10.3,3.7c-4,0-7.1-1.2-9.6-3.7s-3.7-5.6-3.7-9.6h9c0,1.6,0.4,3,1.3,4.1c0.9,1.1,1.9,1.7,3.2,1.7
		c1.5,0,2.8-0.5,3.7-1.7s1.3-2.7,1.3-4.5c0-4.5-1.7-6.8-5.3-6.8h-4.4L357.9,361.3L357.9,361.3z"/>
	<path class="st0" d="M409.4,369.4c0,6.3-1.2,11.2-3.5,14.5s-5.6,5.1-9.9,5.1c-4.2,0-7.6-1.6-9.8-4.9c-2.3-3.3-3.5-8-3.6-14.1v-8.7
		c0-6.3,1.2-11.2,3.5-14.5s5.6-5.1,9.9-5.1s7.6,1.6,9.9,4.9s3.5,8.1,3.6,14.2v8.6H409.4z M400.4,360c0-3.7-0.3-6.3-1.1-8.2
		c-0.8-1.8-1.8-2.7-3.3-2.7c-2.8,0-4.3,3.3-4.4,9.9v11.4c0,3.7,0.3,6.4,1.1,8.3s1.8,2.7,3.3,2.7c1.4,0,2.5-0.9,3.2-2.6
		s1.1-4.3,1.1-7.7V360L400.4,360L400.4,360z"/>
</g>
</svg>
