<?xml version="1.0" encoding="utf-8"?>
<!-- Generator: Adobe Illustrator 23.0.1, SVG Export Plug-In . SVG Version: 6.00 Build 0)  -->
<svg version="1.1" id="Слой_1" xmlns="http://www.w3.org/2000/svg" xmlns:xlink="http://www.w3.org/1999/xlink" x="0px" y="0px"
	 viewBox="0 0 512 512" style="enable-background:new 0 0 512 512;" xml:space="preserve">
<style type="text/css">
	.st0{fill:#F1367B;}
</style>
<g id="Layer_1">
</g>
<g id="Layer_2">
	<g>
		<path class="st0" d="M476,171.2c-2.1-3-5.6-4.7-9.2-4.7h-70.1v-29.3c0-6.1-5.1-11.1-11.3-11.1h-254c-6.2,0-11.3,5-11.3,11.1v179.6
			c0,6.1,5.1,11.1,11.3,11.1h32c5.9,20.2,24.9,35.1,47.2,35.1s41.3-14.8,47.2-35.1h125.3c5.9,20.2,24.9,35.1,47.2,35.1
			s41.3-14.8,47.2-35.1h23.4c6.2,0,11.3-5,11.3-11.1v-91.5c0-2.4-0.8-4.6-2.1-6.4L476,171.2z M489.5,228.6h-50.7v-39.7H461
			L489.5,228.6z M142.6,148.4H374v157.4H258.7c-4.4-22.4-24.3-39.3-48.2-39.3s-44,16.9-48.2,39.3h-19.6L142.6,148.4L142.6,148.4z
			 M210.5,340.8c-14.6,0-26.5-11.7-26.5-26.1s11.9-26.1,26.5-26.1s26.5,11.7,26.5,26.1S225.1,340.8,210.5,340.8z M430.3,340.8
			c-14.6,0-26.5-11.7-26.5-26.1s11.9-26.1,26.5-26.1s26.5,11.7,26.5,26.1S444.9,340.8,430.3,340.8z M478.5,305.8
			c-4.4-22.4-24.3-39.3-48.2-39.3c-13,0-24.9,5-33.6,13.2v-90.9h19.4v50.8c0,6.1,5.1,11.1,11.3,11.1h62.3v55H478.5z"/>
		<path class="st0" d="M11.3,148.4H92c6.2,0,11.3-5,11.3-11.1c0-6.1-5.1-11.1-11.3-11.1H11.3c-6.2,0-11.3,5-11.3,11.1
			C0,143.3,5.1,148.4,11.3,148.4z"/>
		<path class="st0" d="M92,166.6H29.9c-6.2,0-11.3,5-11.3,11.1s5.1,11.1,11.3,11.1H92c6.2,0,11.3-5,11.3-11.1S98.3,166.6,92,166.6z"
			/>
		<path class="st0" d="M92,207.1H52.8c-6.2,0-11.3,5-11.3,11.1c0,6.1,5.1,11.1,11.3,11.1H92c6.2,0,11.3-5,11.3-11.1
			C103.3,212.1,98.3,207.1,92,207.1z"/>
		<path class="st0" d="M92,247.5H78.4c-6.2,0-11.3,5-11.3,11.1c0,6.1,5.1,11.1,11.3,11.1H92c6.2,0,11.3-5,11.3-11.1
			C103.3,252.6,98.3,247.5,92,247.5z"/>
	</g>
</g>
</svg>
