<svg id="верникальный_заголовок" data-name="верникальный заголовок" xmlns="http://www.w3.org/2000/svg" width="89.035" height="731.625" viewBox="0 0 89.035 731.625">
  <defs>
    <style>
      .cls-1 {
        fill: #efe5e8;
        fill-opacity: 0;
        stroke: #f1367b;
        stroke-linejoin: round;
        stroke-width: 3px;
      }

      .cls-1, .cls-2 {
        fill-rule: evenodd;
      }

      .cls-2 {
        fill: #f1367b;
      }
    </style>
  </defs>
  <path id="ция" class="cls-1" d="M994.456,354.893V300.665h8.694V284.5H977.406v7.809H917.459v20.129h58.848v22.329H917.459v20.13h77ZM956.617,219.921h37.839V199.572H917.129v7.15l38.058,38.938H917.459v20.129h77.107v-7.04ZM991.6,180.868h2.86v-22l-22.659-13.2v-10.23h22.659V115.75h-77v33.769c0.11,30.249,36.518,35.748,49.718,16.279Zm-37.509-31.349c0,10.669-18.919,11.219-19.029,0-0.11-4.62,0-9.46,0-14.08h19.029v14.08Z" transform="translate(-915.625 -114.25)"/>
  <path id="FLOREN" class="cls-2" d="M969.487,801.1h-17.6v24.749h-16.83V797.912h-17.6V845.87h77V825.851H969.487V801.1Zm-52.028-44.663v19.8h77V728.5H976.747v27.939H917.459Zm38.608-122.313c-53.237,0-53.237,78.977,0,78.977C1009.42,713.1,1009.42,634.126,956.067,634.126Zm0,58.738c-27.718,0-27.718-38.609,0-38.609C984.006,654.255,984.006,692.864,956.067,692.864Zm11.11-130.112c-13.2-19.469-49.608-13.969-49.718,16.279V612.8h77V593.111H971.8v-10.23l22.659-13.2v-22H991.6Zm-12.87,16.279v14.08H935.058c0-4.62-.11-9.46,0-14.08C935.168,567.812,954.307,568.362,954.307,579.031ZM917.459,481.12v48.068h77V480.13h-17.49v29.479H963.437V483.43H945.948v26.179h-10.89V481.12h-17.6Zm77.107-83.693v-7.04H917.459v20.129h37.728l-38.058,38.938v7.15h77.327V436.255H956.617Z" transform="translate(-915.625 -114.25)"/>
</svg>
