<?xml version="1.0" encoding="utf-8"?>
<!-- Generator: Adobe Illustrator 23.0.1, SVG Export Plug-In . SVG Version: 6.00 Build 0)  -->
<svg version="1.1" id="Слой_1" xmlns="http://www.w3.org/2000/svg" xmlns:xlink="http://www.w3.org/1999/xlink" x="0px" y="0px"
	 viewBox="0 0 501 501" style="enable-background:new 0 0 501 501;" xml:space="preserve">
<style type="text/css">
	.st0{fill:#F1367B;}
</style>
<g id="Layer_1">
</g>
<g id="Layer_2">
	<g>
		<path class="st0" d="M372.3,284.5c-2.1,0-4.2,0.8-5.7,2.3c-1.5,1.5-2.4,3.4-2.4,5.5c0,2.1,0.9,4.1,2.4,5.5
			c1.5,1.5,3.5,2.3,5.7,2.3c2.1,0,4.2-0.8,5.7-2.3c1.5-1.5,2.4-3.4,2.4-5.5c0-2.1-0.9-4.1-2.4-5.5
			C376.4,285.3,374.3,284.5,372.3,284.5z"/>
		<path class="st0" d="M418.4,257.5h-20.2v-82.1c0-4.3-3.6-7.8-8-7.8h-39.9v-54.1c0-4.3-3.6-7.8-8-7.8H234.5V96c0-4.3-3.6-7.8-8-7.8
			H110.7c-4.4,0-8,3.5-8,7.8v71.5H75.6c-4.4,0-8,3.5-8,7.8v237.2c0,4.3,3.6,7.8,8,7.8h314.6c4.4,0,8-3.5,8-7.8v-82.1h20.2
			c9.3,0,16.9-7.4,16.9-16.5V274C435.3,264.9,427.7,257.5,418.4,257.5z M334.2,121.2v46.3h-15.5V149c0-4.3-3.7-7.8-8.1-7.8
			c-1.3,0-2.2-0.9-2.4-2.1c-0.4-4-3.8-7.1-8-7.1h-32.7c-4.1,0-7.6,3-8,7c-0.1,1.3-1.2,2.1-2.4,2.1H257c-4.4,0-8,3.5-8,7.8v18.6
			h-14.4v-46.3h99.7L334.2,121.2L334.2,121.2z M265,167.5V155c3.4-1.6,6.3-4.2,8.2-7.4h21.3c1.8,3.2,4.7,5.8,8.1,7.4v12.5H265z
			 M118.7,103.7h99.7v9.6v54.1h-15.5v-36.1c0-2.1-0.9-4.2-2.5-5.6c-1.5-1.5-3.6-2.3-5.8-2.2c-1.2,0-2.1-0.9-2.4-2.1
			c-0.4-4-3.8-7-8-7h-32.7c-4.1,0-7.6,3-8,7c-0.1,1.1-1.1,2.1-2.4,2.1c-2.1-0.1-4.3,0.7-5.8,2.2c-1.6,1.5-2.5,3.5-2.5,5.6v36.1
			h-14.4v-63.7L118.7,103.7L118.7,103.7z M149.2,167.5v-29.9c3.4-1.6,6.3-4.2,8.2-7.4h21.3c1.8,3.2,4.7,5.8,8.1,7.4v29.9H149.2z
			 M382.1,357.2h-18.4c-5.1,0-9.3,4.2-9.3,9.4s4.2,9.4,9.3,9.4h18.4v28.9H83.6V376H102c5.1,0,9.3-4.2,9.3-9.4s-4.2-9.4-9.3-9.4H83.6
			V230.7H102c5.1,0,9.3-4.2,9.3-9.4c0-5.2-4.2-9.4-9.3-9.4H83.6V183h27.2h115.7h155.7v28.9h-18.4c-5.1,0-9.3,4.2-9.3,9.4
			c0,5.2,4.2,9.4,9.3,9.4h18.4v26.8h-27.8c-9.3,0-16.9,7.4-16.9,16.5v39.9c0,9.1,7.6,16.5,16.9,16.5h27.8L382.1,357.2L382.1,357.2z
			 M419.2,313.9c0,0.5-0.4,0.8-0.9,0.8h-28.1h-0.1H390h-35.7c-0.5,0-0.9-0.4-0.9-0.8v-39.9c0-0.5,0.4-0.8,0.9-0.8h64.1
			c0.5,0,0.9,0.4,0.9,0.8V313.9z"/>
		<path class="st0" d="M176.8,211.9h-37.4c-5.1,0-9.3,4.2-9.3,9.4c0,5.2,4.2,9.4,9.3,9.4h37.4c5.1,0,9.3-4.2,9.3-9.4
			C186.1,216.2,181.9,211.9,176.8,211.9z"/>
		<path class="st0" d="M251.5,211.9h-37.4c-5.1,0-9.3,4.2-9.3,9.4c0,5.2,4.2,9.4,9.3,9.4h37.4c5.1,0,9.3-4.2,9.3-9.4
			C260.8,216.2,256.7,211.9,251.5,211.9z"/>
		<path class="st0" d="M326.4,211.9H289c-5.1,0-9.3,4.2-9.3,9.4c0,5.2,4.2,9.4,9.3,9.4h37.4c5.1,0,9.3-4.2,9.3-9.4
			C335.7,216.2,331.5,211.9,326.4,211.9z"/>
		<path class="st0" d="M251.5,357.2h-37.4c-5.1,0-9.3,4.2-9.3,9.4s4.2,9.4,9.3,9.4h37.4c5.1,0,9.3-4.2,9.3-9.4
			C260.8,361.4,256.7,357.2,251.5,357.2z"/>
		<path class="st0" d="M326.4,357.2H289c-5.1,0-9.3,4.2-9.3,9.4s4.2,9.4,9.3,9.4h37.4c5.1,0,9.3-4.2,9.3-9.4
			C335.7,361.4,331.5,357.2,326.4,357.2z"/>
		<path class="st0" d="M176.8,357.2h-37.4c-5.1,0-9.3,4.2-9.3,9.4s4.2,9.4,9.3,9.4h37.4c5.1,0,9.3-4.2,9.3-9.4
			S181.9,357.2,176.8,357.2z"/>
	</g>
</g>
</svg>
