<?xml version="1.0" encoding="utf-8"?>
<!-- Generator: Adobe Illustrator 23.0.1, SVG Export Plug-In . SVG Version: 6.00 Build 0)  -->
<svg version="1.1" id="whatsup" xmlns="http://www.w3.org/2000/svg" xmlns:xlink="http://www.w3.org/1999/xlink" x="0px" y="0px"
	 viewBox="0 0 208 208" style="enable-background:new 0 0 208 208;" xml:space="preserve">
<style type="text/css">
	.st0{fill:#F1367B;}
</style>
<g>
	<path class="st0" d="M104,0C46.7,0,0,46.7,0,104c0,19.6,5.4,38.6,15.7,55c-4.1,14.4-11.5,41.6-11.6,41.9c-0.4,1.4,0,2.9,1.1,3.9
		c1.1,1,2.6,1.4,4,0.9l41.2-12.7C66.5,202.9,85,208,104,208c57.3,0,104-46.7,104-104S161.3,0,104,0z M104,200
		c-18.1,0-35.7-5.1-50.9-14.6c-0.6-0.4-1.4-0.6-2.1-0.6c-0.4,0-0.8,0.1-1.2,0.2l-36,11.1c2.6-9.7,7.4-26.9,10.2-36.5
		c0.3-1.1,0.1-2.3-0.5-3.3C13.3,140.7,8,122.6,8,104C8,51.1,51.1,8,104,8c52.9,0,96,43.1,96,96S156.9,200,104,200z"/>
	<path class="st0" d="M171.9,128.5c-7.4-4.1-13.7-8.2-18.3-11.2c-3.5-2.3-6-3.9-7.9-4.9c-5.2-2.6-9.1-0.8-10.6,0.8
		c-0.2,0.2-0.4,0.4-0.5,0.6c-5.4,8.1-12.4,15.8-14.5,16.2c-2.4-0.4-13.5-6.7-24.6-15.9c-11.3-9.4-18.4-18.4-19.5-24.6
		C83.4,82,86,77.3,86,72c0-5.5-12.8-28.5-15.2-30.8c-2.3-2.3-7.6-2.7-15.6-1.1c-0.8,0.2-1.5,0.5-2,1.1c-1,1-23.7,24.2-12.9,52.3
		c11.9,30.8,42.3,66.7,81.1,72.5c4.4,0.7,8.5,1,12.4,1c22.8,0,36.3-11.5,40.1-34.3C174.2,131,173.4,129.3,171.9,128.5z M122.6,158
		c-41.1-6.2-66.9-46.8-74.9-67.5C39.9,70.1,54.4,51.8,58,47.7c3-0.5,6.1-0.7,7.4-0.5C68.2,51,77.6,68.8,78,72c0,2.1-0.7,5-8.8,13.2
		C68.4,85.9,68,86.9,68,88c0,20.9,44.2,50,52,50c6.8,0,15.7-11.4,20.7-18.9c0.3,0,0.8,0.1,1.5,0.5c1.4,0.7,3.9,2.4,7.1,4.4
		c4.2,2.7,9.7,6.3,16.2,10.1C162.6,148.4,154.3,162.8,122.6,158z"/>
</g>
</svg>
