<?xml version="1.0" encoding="utf-8"?>
<!-- Generator: Adobe Illustrator 23.0.1, SVG Export Plug-In . SVG Version: 6.00 Build 0)  -->
<svg version="1.1" id="Слой_1" xmlns="http://www.w3.org/2000/svg" xmlns:xlink="http://www.w3.org/1999/xlink" x="0px" y="0px"
	 viewBox="0 0 286.6 94.5" style="enable-background:new 0 0 286.6 94.5;" xml:space="preserve">
<style type="text/css">
	.st0{fill:none;stroke:#C4262E;stroke-width:3.8742;stroke-miterlimit:10;}
	.st1{fill:none;stroke:#FFFFFF;stroke-width:3.658;stroke-linecap:round;stroke-linejoin:round;stroke-miterlimit:10;}
	.st2{enable-background:new    ;}
	.st3{fill:#FFFFFF;}
	.st4{fill:#FFFFFF;stroke:#FFFFFF;stroke-width:1.933;stroke-miterlimit:10;}
</style>
<path class="st0" d="M-44.8-52.4"/>
<rect x="17" y="19" class="st1" width="58.8" height="58.8"/>
<polygon class="st1" points="22.3,25 69.5,25 69.5,71.6 40.8,71.6 22.3,55 "/>
<polyline class="st1" points="28.3,37 28.3,31.2 34.2,31.2 "/>
<polyline class="st1" points="57.8,31.2 63.9,31.2 63.9,37 "/>
<polyline class="st1" points="63.9,60.3 63.9,66.2 57.8,66.2 "/>
<line class="st1" x1="27.7" y1="78.5" x2="27.7" y2="90.4"/>
<line class="st1" x1="40.2" y1="78.5" x2="40.2" y2="90.4"/>
<line class="st1" x1="52.2" y1="78.5" x2="52.2" y2="90.4"/>
<line class="st1" x1="63.9" y1="77.7" x2="63.9" y2="90.4"/>
<line class="st1" x1="27.7" y1="6.7" x2="27.7" y2="18.6"/>
<line class="st1" x1="40.2" y1="6.7" x2="40.2" y2="18.6"/>
<line class="st1" x1="52.2" y1="6.7" x2="52.2" y2="18.6"/>
<line class="st1" x1="63.9" y1="6" x2="63.9" y2="18.6"/>
<line class="st1" x1="16.1" y1="31.2" x2="4.2" y2="31.2"/>
<line class="st1" x1="16.1" y1="43.7" x2="4.2" y2="43.7"/>
<line class="st1" x1="16.1" y1="55.7" x2="4.2" y2="55.7"/>
<line class="st1" x1="16.8" y1="67.4" x2="4.2" y2="67.4"/>
<g class="st2">
	<path class="st3" d="M147.8,2.8V15h6.4v12.3h-6.4v41.6c0,5.1,0.3,8,0.8,8.6s2.7,0.9,6.6,0.9v12.5h-9.5c-5.4,0-9.2-0.2-11.5-0.7
		c-2.3-0.4-4.3-1.5-6.1-3.1c-1.8-1.6-2.8-3.5-3.3-5.6c-0.4-2.1-0.6-7-0.6-14.7V27.3H119V15h5.1V2.8H147.8z"/>
</g>
<rect x="86" y="3.1" class="st4" width="23.9" height="87"/>
<g>
</g>
<g class="st2">
	<path class="st3" d="M174.1,9.6l-0.1,2.6c0.6-1,1.4-1.8,2.3-2.3s1.9-0.8,3-0.8c2.2,0,4,1,5.2,3.1c0.7-1,1.5-1.8,2.4-2.3
		s1.8-0.8,2.9-0.8c1.4,0,2.6,0.3,3.5,1s1.5,1.5,1.8,2.5s0.4,2.6,0.4,4.8v19.3h-8V19.1c0-2.3-0.1-3.8-0.2-4.3
		c-0.2-0.6-0.5-0.8-1.1-0.8c-0.6,0-1,0.3-1.1,0.8s-0.3,2-0.3,4.3v17.7h-8V19.5c0-2.7-0.1-4.3-0.2-4.8s-0.5-0.8-1.1-0.8
		c-0.4,0-0.7,0.1-0.9,0.4c-0.3,0.3-0.4,0.6-0.4,1c0,0.4,0,1.3,0,2.6v18.9h-8V9.6H174.1z"/>
	<path class="st3" d="M213.6,20.1h-7.8v-1.8c0-2.1,0.2-3.7,0.7-4.9c0.5-1.1,1.5-2.1,2.9-3s3.4-1.3,5.7-1.3c2.8,0,4.9,0.5,6.3,1.5
		s2.3,2.2,2.6,3.7s0.4,4.4,0.4,8.9v13.7h-8.1v-2.4c-0.5,1-1.2,1.7-2,2.2s-1.8,0.7-2.9,0.7c-1.4,0-2.8-0.4-4-1.2
		c-1.2-0.8-1.8-2.6-1.8-5.3v-2.2c0-2,0.3-3.4,1-4.2s2.2-1.6,4.8-2.6c2.7-1.1,4.2-1.8,4.4-2.2s0.3-1.1,0.3-2.3c0-1.4-0.1-2.3-0.3-2.8
		c-0.2-0.4-0.6-0.6-1.1-0.6c-0.6,0-0.9,0.2-1,0.5c-0.1,0.4-0.2,1.3-0.2,2.8V20.1z M216.3,23.9c-1.3,1-2.1,1.8-2.3,2.4
		s-0.3,1.6-0.3,2.8c0,1.4,0.1,2.3,0.3,2.7c0.2,0.4,0.5,0.6,1.1,0.6c0.5,0,0.9-0.2,1-0.5c0.2-0.3,0.2-1.2,0.2-2.5V23.9z"/>
	<path class="st3" d="M254.2,3.6v33.2h-8.3v-2c-0.8,0.8-1.6,1.4-2.5,1.8c-0.9,0.4-1.8,0.6-2.7,0.6c-1.3,0-2.4-0.3-3.3-1
		c-0.9-0.7-1.5-1.5-1.8-2.3s-0.4-2.3-0.4-4.3V16.8c0-2.1,0.1-3.6,0.4-4.5s0.9-1.6,1.8-2.3s2.1-1,3.4-1c1,0,2,0.2,2.8,0.6
		c0.9,0.4,1.6,0.9,2.3,1.7V3.6H254.2z M245.9,16.4c0-1-0.1-1.7-0.3-2s-0.5-0.5-1-0.5c-0.5,0-0.8,0.2-1,0.5c-0.2,0.3-0.3,1-0.3,2.1
		v13.3c0,1.1,0.1,1.8,0.2,2.2c0.2,0.3,0.5,0.5,0.9,0.5c0.5,0,0.9-0.2,1.1-0.6c0.2-0.4,0.3-1.3,0.3-2.9V16.4z"/>
	<path class="st3" d="M283.9,23.7h-10.7v5.9c0,1.2,0.1,2,0.3,2.4c0.2,0.4,0.5,0.5,1,0.5c0.6,0,1-0.2,1.3-0.7
		c0.2-0.5,0.3-1.4,0.3-2.7v-3.6h7.9v2c0,1.7-0.1,3-0.3,3.9c-0.2,0.9-0.7,1.9-1.5,2.9s-1.8,1.8-3,2.3c-1.2,0.5-2.7,0.8-4.5,0.8
		c-1.8,0-3.3-0.3-4.6-0.8s-2.4-1.2-3.1-2.1c-0.7-0.9-1.3-1.9-1.5-2.9c-0.3-1.1-0.4-2.6-0.4-4.6V19c0-2.4,0.3-4.3,1-5.6
		c0.6-1.4,1.7-2.4,3.2-3.2c1.5-0.7,3.1-1.1,5-1.1c2.3,0,4.2,0.4,5.8,1.3c1.5,0.9,2.6,2.1,3.2,3.5c0.6,1.5,0.9,3.5,0.9,6.1V23.7z
		 M275.6,19.2v-2c0-1.4-0.1-2.3-0.2-2.7s-0.5-0.6-0.9-0.6c-0.6,0-0.9,0.2-1.1,0.5c-0.1,0.3-0.2,1.3-0.2,2.8v2H275.6z"/>
</g>
<g class="st2">
	<path class="st3" d="M165.5,89.9c-0.8-0.8-1.1-1.7-1.1-2.7V75.9h4.1V87h2.7V69.9h-2.9c-1.1,0-2-0.4-2.7-1.2
		c-0.8-0.8-1.1-1.7-1.1-2.7V48.5c0-1.1,0.4-2,1.1-2.7c0.8-0.8,1.7-1.2,2.7-1.2h3.2c1.1,0,1.9,0.4,2.7,1.1c0.7,0.8,1.1,1.7,1.1,2.8
		v11.3h-4.1V48.7h-2.7v17.1h2.9c1.1,0,1.9,0.4,2.7,1.1c0.7,0.8,1.1,1.7,1.1,2.8v17.4c0,1.1-0.4,2-1.1,2.8c-0.7,0.8-1.6,1.1-2.7,1.1
		h-3.2C167.2,91.1,166.3,90.7,165.5,89.9z"/>
	<path class="st3" d="M189.7,48.7h-3.4v-4.1h3.4h4.1h3.3v4.1h-3.3v42.4h-4.1V48.7z"/>
	<path class="st3" d="M215.3,44.6h4.1v42.3c0,1.1-0.3,2-1,2.8c-0.8,0.9-1.7,1.4-2.8,1.4h-3.3c-1.1,0-2-0.5-2.8-1.4
		c-0.6-0.8-1-1.7-1-2.8V44.6h4.1v42.3V87h2.7v-0.1V44.6z"/>
	<path class="st3" d="M240,45c0.5,0.2,0.9,0.6,1.3,1c0.7,0.8,1,1.8,1,2.9v37.9c0,1.1-0.3,2.1-1,2.9c-0.3,0.4-0.8,0.7-1.3,1
		c-0.5,0.2-1,0.4-1.6,0.4h-6.9V44.6h6.9C239,44.6,239.5,44.8,240,45z M238.2,48.9v-0.2h-2.7V87h2.7v-0.2V48.9z"/>
	<path class="st3" d="M254.5,44.6h4.1v46.4h-4.1V44.6z"/>
	<path class="st3" d="M280.1,45.9c0.6,0.8,1,1.6,1,2.7v38.5c0,1-0.3,1.9-1,2.7c-0.7,0.9-1.6,1.3-2.7,1.3h-3.5c-1.1,0-2-0.4-2.7-1.3
		c-0.6-0.7-0.9-1.6-0.9-2.7V48.6c0-1.1,0.3-1.9,0.9-2.7c0.7-0.9,1.6-1.3,2.7-1.3h3.5C278.6,44.6,279.5,45.1,280.1,45.9z M277,48.7
		h-2.7V87h2.7V48.7z"/>
</g>
<g>
</g>
<g>
</g>
<g>
</g>
<g>
</g>
<g>
</g>
</svg>
