<?xml version="1.0" encoding="utf-8"?>
<!-- Generator: Adobe Illustrator 23.0.1, SVG Export Plug-In . SVG Version: 6.00 Build 0)  -->
<svg version="1.1" id="Слой_1" xmlns="http://www.w3.org/2000/svg" xmlns:xlink="http://www.w3.org/1999/xlink" x="0px" y="0px"
	 viewBox="0 0 448 160" style="enable-background:new 0 0 448 160;" xml:space="preserve">
<style type="text/css">
	.st0{display:none;fill:none;stroke:#FF0000;stroke-miterlimit:10;}
	.st1{fill:#FFFFFF;stroke:#FFFFFF;stroke-miterlimit:10;}
	.st2{fill:#FFFFFF;}
	.st3{fill:#FF5600;}
	.st4{fill:none;}
</style>
<image style="display:none;overflow:visible;" width="448" height="160" xlink:href="logo.gif"  transform="matrix(1 0 0 1 5 0)">
</image>
<circle class="st0" cx="367.9" cy="80.4" r="77.4"/>
<circle class="st0" cx="367.9" cy="80.4" r="47.3"/>
<rect x="283.9" y="3" class="st0" width="84" height="77"/>
<rect x="367.9" y="80" class="st0" width="84.7" height="84.7"/>
<path class="st1" d="M367.9,3v30.1c3.1,0,20.6,0.4,34.2,14.6C414.8,61,415.2,77,415.2,80.4c0,3.1-0.4,20.4-14.4,34
	c-13.4,12.9-29.6,13.3-32.9,13.3c0,10,0,20.1,0,30.1c4.9-0.1,37.3-1.2,59.6-28c16.7-20.1,17.8-42.5,17.8-49.4
	c0-5.1-0.5-33-23.1-55.2C400.2,3.6,373.2,3,367.9,3z"/>
<line class="st0" x1="367.9" y1="80.4" x2="244.1" y2="146.7"/>
<path class="st1" d="M367.9,127.7c-4.5,0-15.9-0.7-27.1-8.5c-8.1-5.7-12.6-12.6-14.7-16.5c-8.9,4.5-17.9,9.1-26.8,13.6
	c3.3,6.3,11.1,19,26.3,28.9c17.7,11.5,35.2,12.5,42.3,12.6C367.9,147.8,367.9,137.8,367.9,127.7z"/>
<polygon class="st1" points="367.9,157.8 117.3,157.8 131.7,128.7 307.4,128.7 "/>
<polygon class="st1" points="326.2,102.8 49.5,102.8 78.9,44.3 45.6,44.3 7.1,116.7 299.4,116.4 326.2,116.7 "/>
<path class="st1" d="M367.9,3H254.6c-4.7,9.9-9.3,19.8-14,29.8c42.4,0.1,84.9,0.2,127.3,0.3V3z"/>
<circle class="st2" cx="367.8" cy="80.9" r="35"/>
<circle class="st3" cx="367.9" cy="80.6" r="27.6"/>
<g>
	<rect x="81.6" y="50.3" class="st4" width="246.8" height="53.8"/>
	<path class="st2" d="M108.3,81.3H94.9l-3.5,6.1H79l22.3-35h11.6l8.3,35h-11.8L108.3,81.3z M106.6,72.8l-1.7-8.9l-5.1,8.9H106.6z"/>
	<path class="st2" d="M152.7,69.7l6.7,17.7h-12.5l-4.3-12.6h-3.8l-2.6,12.6h-11.8l7-35h11.8l-2.6,13h3l10-13h13.1L152.7,69.7z"/>
	<path class="st2" d="M198.2,78.3h4.6l-3.2,16h-10.8l1.3-6.8h-28l7-35h11.6l-5.2,25.9h11.1l5.1-25.9h11.6L198.2,78.3z"/>
	<path class="st2" d="M221.7,61.3l-0.8,4.1h14.8l-1.7,8.5h-14.9l-0.9,4.6h17.5l-1.8,8.9h-29.1l7-35h28.5l-1.8,8.9H221.7z"/>
	<path class="st2" d="M280.3,52.4l-7,35h-11.8l2.6-12.9h-10.9l-2.6,12.9h-11.8l7-35h11.8l-2.5,12.4H266l2.5-12.4H280.3z"/>
	<path class="st2" d="M314.5,61.6h-10.4l-5,25.9h-11.6l5-25.9h-10.1l1.8-9.1h32.1L314.5,61.6z"/>
</g>
<g>
</g>
<g>
</g>
<g>
</g>
<g>
</g>
<g>
</g>
</svg>
