<?xml version="1.0" encoding="utf-8"?>
<!-- Generator: Adobe Illustrator 23.0.1, SVG Export Plug-In . SVG Version: 6.00 Build 0)  -->
<svg version="1.1" id="Слой_1" xmlns="http://www.w3.org/2000/svg" xmlns:xlink="http://www.w3.org/1999/xlink" x="0px" y="0px"
	 viewBox="0 0 27 44.6" style="enable-background:new 0 0 27 44.6;" xml:space="preserve">
<style type="text/css">
	.st0{fill:none;}
	.st1{fill:#FFFFFF;}
</style>
<g>
	<rect x="0" y="-4.1" class="st0" width="27" height="48.5"/>
	<path class="st1" d="M6.9,22.9l-1.5-1.1c2.2-2.5,4.3-4.2,6.1-5.3c1.9-1,3.4-1.6,4.7-1.6c0.7,0,1.3,0.2,1.6,0.5
		c0.4,0.3,0.6,0.7,0.6,1.3c0,0.7-0.7,3.4-2.2,8.3c-2.4,8-3.6,12.8-3.6,14.4c0,0.3,0.1,0.6,0.2,0.8c0.2,0.2,0.3,0.3,0.5,0.3
		c0.7,0,2.6-1.4,5.5-4.2l1.3,1.3c-3.1,2.9-5.3,4.8-6.7,5.6s-2.6,1.2-3.5,1.2c-0.8,0-1.4-0.2-1.9-0.7s-0.7-1.2-0.7-2.1
		c0-2.8,1.7-9.7,5.1-20.6c0.2-0.5,0.2-1,0.2-1.4c0-0.4-0.2-0.7-0.6-0.7c-0.4,0-1,0.2-1.5,0.5C10.2,19.8,8.9,21,6.9,22.9z M20.2,0.6
		c0.7,0,1.3,0.2,1.7,0.7c0.4,0.5,0.7,1,0.7,1.8c0,1-0.3,1.9-1,2.6c-0.7,0.8-1.5,1.1-2.3,1.1c-0.7,0-1.2-0.2-1.7-0.7
		c-0.4-0.5-0.7-1.1-0.7-1.9c0-1,0.3-1.9,1-2.6C18.5,0.9,19.3,0.6,20.2,0.6z"/>
</g>
<g>
</g>
<g>
</g>
<g>
</g>
<g>
</g>
<g>
</g>
</svg>
