<?xml version="1.0" encoding="utf-8"?>
<!-- Generator: Adobe Illustrator 23.0.1, SVG Export Plug-In . SVG Version: 6.00 Build 0)  -->
<svg version="1.1" id="Слой_1" xmlns="http://www.w3.org/2000/svg" xmlns:xlink="http://www.w3.org/1999/xlink" x="0px" y="0px"
	 viewBox="0 0 512 512" style="enable-background:new 0 0 512 512;" xml:space="preserve">
<style type="text/css">
	.st0{fill:#007261;}
</style>
<g id="device_setting">
	<path class="st0" d="M494.1,434.8c-1.5-1.8-3.7-2.8-6.1-2.8h-8V168c0-13.2-10.8-24-24-24h-56v-8c0-3.9-2.8-7.3-6.7-7.9l-31.6-5.3
		c-1.4-3.8-2.9-7.6-4.7-11.2l18.7-26.2c2.3-3.2,1.9-7.6-0.9-10.3l-33.9-33.9c-2.8-2.8-7.1-3.2-10.3-0.9L304.4,59
		c-3.6-1.8-7.4-3.4-11.2-4.7l-5.3-31.6c-0.6-3.9-4-6.7-7.9-6.7h-48c-3.9,0-7.3,2.8-7.9,6.7l-5.3,31.6c-3.8,1.4-7.6,2.9-11.2,4.7
		l-26.2-18.7c-3.2-2.3-7.6-1.9-10.3,0.9l-33.9,33.9c-2.8,2.8-3.2,7.1-0.9,10.3l18.7,26.2c-1.8,3.6-3.4,7.4-4.7,11.2l-31.6,5.3
		c-3.9,0.6-6.7,4-6.7,7.9v8H56c-13.2,0-24,10.8-24,24v264h-8c-4.4,0-8,3.6-8,8c0,0.4,0,0.9,0.1,1.3l5.8,34.6
		c1.8,11.6,11.9,20.1,23.6,20.1h421c11.7,0,21.8-8.5,23.6-20.1l5.8-34.6C496.3,439,495.6,436.6,494.1,434.8L494.1,434.8z M128,142.8
		l29.8-5c3-0.5,5.5-2.7,6.3-5.6c1.9-6.1,4.3-12,7.3-17.6c1.4-2.7,1.3-5.9-0.5-8.4l-17.6-24.6l24.4-24.4l24.6,17.6
		c2.5,1.7,5.7,1.9,8.4,0.5c5.6-3,11.5-5.4,17.6-7.3c2.9-0.9,5.1-3.3,5.6-6.3l5-29.8h34.4l5,29.8c0.5,3,2.7,5.4,5.6,6.3
		c6.1,1.9,12,4.3,17.6,7.3c2.7,1.4,5.9,1.3,8.4-0.5l24.6-17.6l24.4,24.4l-17.6,24.6c-1.7,2.5-1.9,5.7-0.5,8.4
		c3,5.6,5.4,11.5,7.3,17.6c0.9,2.9,3.3,5.1,6.3,5.6l29.8,5v34.4l-29.8,5c-3,0.5-5.5,2.7-6.3,5.6c-1.9,6.1-4.3,12-7.3,17.6
		c-1.4,2.7-1.3,5.9,0.5,8.4l17.6,24.6l-24.4,24.4l-24.6-17.6c-2.5-1.7-5.7-1.9-8.4-0.5c-5.6,3-11.5,5.4-17.6,7.3
		c-2.9,0.9-5.1,3.3-5.6,6.3l-5,29.8h-34.4l-5-29.8c-0.5-3-2.7-5.4-5.6-6.3c-6.1-1.9-12-4.3-17.6-7.3c-2.7-1.4-5.9-1.3-8.4,0.5
		l-24.6,17.6l-24.4-24.4l17.6-24.6c1.7-2.5,1.9-5.7,0.5-8.4c-3-5.6-5.4-11.5-7.3-17.6c-0.9-2.9-3.3-5.1-6.3-5.6l-29.8-5L128,142.8z
		 M48,168c0-4.4,3.6-8,8-8h56v24c0,3.9,2.8,7.3,6.7,7.9l31.6,5.3c1.4,3.8,2.9,7.6,4.7,11.2l-18.7,26.2c-2.3,3.2-1.9,7.6,0.9,10.3
		l33.9,33.9c2.8,2.8,7.1,3.2,10.3,0.9l26.2-18.7c3.6,1.8,7.4,3.4,11.2,4.7l5.3,31.6c0.6,3.9,4,6.7,7.9,6.7h48c3.9,0,7.3-2.8,7.9-6.7
		l5.3-31.6c3.8-1.4,7.6-2.9,11.2-4.7l26.2,18.7c3.2,2.3,7.6,1.9,10.3-0.9l33.9-33.9c2.8-2.8,3.2-7.1,0.9-10.3L357,208.4
		c1.8-3.6,3.4-7.4,4.7-11.2l31.6-5.3c3.9-0.6,6.7-4,6.7-7.9v-24h56c4.4,0,8,3.6,8,8v264H288c-4.4,0-8,3.6-8,8v8h-48v-8
		c0-4.4-3.6-8-8-8H48L48,168z M474.3,473.3c-0.6,3.9-3.9,6.7-7.8,6.7h-421c-3.9,0-7.2-2.8-7.8-6.7L33.4,448H216v8c0,4.4,3.6,8,8,8
		h64c4.4,0,8-3.6,8-8v-8h182.6L474.3,473.3z"/>
	<path class="st0" d="M210.3,213.7l11.3-11.3L179.3,160l42.3-42.3l-11.3-11.3l-48,48c-3.1,3.1-3.1,8.2,0,11.3L210.3,213.7z"/>
	<path class="st0" d="M301.7,213.7l48-48c3.1-3.1,3.1-8.2,0-11.3l-48-48l-11.3,11.3l42.3,42.3l-42.3,42.3L301.7,213.7z"/>
	<path class="st0" d="M224.5,229.5l48.1-144.1l15.2,5.1l-48.1,144.1L224.5,229.5z"/>
	<path class="st0" d="M112,368h32v16h-32V368z"/>
	<path class="st0" d="M64,368h32v16H64V368z"/>
	<path class="st0" d="M64,400h112v16H64V400z"/>
	<path class="st0" d="M64,336h48v16H64V336z"/>
	<path class="st0" d="M64,304h48v16H64V304z"/>
	<path class="st0" d="M368,368h32v16h-32V368z"/>
	<path class="st0" d="M416,368h32v16h-32V368z"/>
	<path class="st0" d="M336,400h112v16H336V400z"/>
	<path class="st0" d="M400,336h48v16h-48V336z"/>
	<path class="st0" d="M400,304h48v16h-48V304z"/>
</g>
</svg>
