<?xml version="1.0" encoding="utf-8"?>
<!-- Generator: Adobe Illustrator 23.0.1, SVG Export Plug-In . SVG Version: 6.00 Build 0)  -->
<svg version="1.1" id="light" xmlns="http://www.w3.org/2000/svg" xmlns:xlink="http://www.w3.org/1999/xlink" x="0px" y="0px"
	 viewBox="0 0 512 512" style="enable-background:new 0 0 512 512;" xml:space="preserve">
<style type="text/css">
	.st0{fill:#007261;}
</style>
<g>
	<path class="st0" d="M256,469.3c-117.3,0-213.3-96-213.3-213.3S138.7,42.7,256,42.7s213.3,96,213.3,213.3S373.3,469.3,256,469.3z
		 M256,64C149.3,64,64,149.3,64,256s85.3,192,192,192s192-85.3,192-192S362.7,64,256,64z"/>
</g>
<g>
	<path class="st0" d="M256,106.7c-6.4,0-10.7-4.3-10.7-10.7V10.7C245.3,4.3,249.6,0,256,0c6.4,0,10.7,4.3,10.7,10.7V96
		C266.7,102.4,262.4,106.7,256,106.7z"/>
</g>
<g>
	<path class="st0" d="M256,106.7c-6.4,0-10.7-4.3-10.7-10.7V10.7C245.3,4.3,249.6,0,256,0c6.4,0,10.7,4.3,10.7,10.7V96
		C266.7,102.4,262.4,106.7,256,106.7z"/>
</g>
<g>
	<path class="st0" d="M501.3,266.7H416c-6.4,0-10.7-4.3-10.7-10.7c0-6.4,4.3-10.7,10.7-10.7h85.3c6.4,0,10.7,4.3,10.7,10.7
		C512,262.4,507.7,266.7,501.3,266.7z"/>
</g>
<g>
	<path class="st0" d="M256,512c-6.4,0-10.7-4.3-10.7-10.7V416c0-6.4,4.3-10.7,10.7-10.7c6.4,0,10.7,4.3,10.7,10.7v85.3
		C266.7,507.7,262.4,512,256,512z"/>
</g>
<g>
	<path class="st0" d="M96,266.7H10.7C4.3,266.7,0,262.4,0,256c0-6.4,4.3-10.7,10.7-10.7H96c6.4,0,10.7,4.3,10.7,10.7
		C106.7,262.4,102.4,266.7,96,266.7z"/>
</g>
<g>
	<path class="st0" d="M256,320c-36.3,0-64-27.7-64-64s27.7-64,64-64s64,27.7,64,64S292.3,320,256,320z M256,213.3
		c-23.5,0-42.7,19.2-42.7,42.7s19.2,42.7,42.7,42.7s42.7-19.2,42.7-42.7S279.5,213.3,256,213.3z"/>
</g>
</svg>
