<?xml version="1.0" encoding="utf-8"?>
<!-- Generator: Adobe Illustrator 23.0.1, SVG Export Plug-In . SVG Version: 6.00 Build 0)  -->
<svg version="1.1" id="Слой_1" xmlns="http://www.w3.org/2000/svg" xmlns:xlink="http://www.w3.org/1999/xlink" x="0px" y="0px"
	 viewBox="0 0 424 374.1" style="enable-background:new 0 0 424 374.1;" xml:space="preserve">
<style type="text/css">
	.st0{fill:#FFFFFF;}
</style>
<path class="st0" d="M377,374.1H47c-25.9,0-47-21.1-47-47V47C0,21.1,21.1,0,47,0h330c25.9,0,47,21.1,47,47v280.1
	C424,353,402.9,374.1,377,374.1z M47,14c-18.2,0-33,14.8-33,33v280.1c0,18.2,14.8,33,33,33h330c18.2,0,33-14.8,33-33V47
	c0-18.2-14.8-33-33-33H47z"/>
<path class="st0" d="M417,112.1H7c-3.9,0-7-3.1-7-7c0-3.9,3.1-7,7-7h410c3.9,0,7,3.1,7,7C424,109,420.9,112.1,417,112.1z"/>
<path class="st0" d="M119.6,78.6c-12.2,0-22.2-9.9-22.2-22.2c0-12.2,9.9-22.2,22.2-22.2c12.2,0,22.2,9.9,22.2,22.2
	C141.8,68.7,131.8,78.6,119.6,78.6z M119.6,48.3c-4.5,0-8.2,3.7-8.2,8.2s3.7,8.2,8.2,8.2c4.5,0,8.2-3.7,8.2-8.2
	S124.1,48.3,119.6,48.3z"/>
<path class="st0" d="M51.5,78.4c-12.2,0-22.2-9.9-22.2-22.2s9.9-22.2,22.2-22.2S73.7,44,73.7,56.2S63.8,78.4,51.5,78.4z M51.5,48.1
	c-4.5,0-8.2,3.7-8.2,8.2c0,4.5,3.7,8.2,8.2,8.2c4.5,0,8.2-3.7,8.2-8.2C59.7,51.7,56,48.1,51.5,48.1z"/>
<path class="st0" d="M187.7,78.8c-12.2,0-22.1-9.9-22.1-22.2c0-12.2,9.9-22.1,22.1-22.1c12.2,0,22.2,9.9,22.2,22.1
	C209.8,68.9,199.9,78.8,187.7,78.8z M187.7,48.5c-4.5,0-8.1,3.7-8.1,8.2s3.7,8.2,8.1,8.2c4.5,0,8.2-3.7,8.2-8.2
	S192.2,48.5,187.7,48.5z"/>
<path class="st0" d="M55.4,271.4c-13.9,0-25.2-10.9-25.2-24.4s11.3-24.4,25.2-24.4s25.2,10.9,25.2,24.4S69.3,271.4,55.4,271.4z
	 M55.4,236.7c-6.2,0-11.2,4.7-11.2,10.4s5,10.4,11.2,10.4c6.2,0,11.2-4.7,11.2-10.4S61.6,236.7,55.4,236.7z"/>
<path class="st0" d="M217.2,254h-104c-3.9,0-7-3.1-7-7s3.1-7,7-7h104c3.9,0,7,3.1,7,7S221.1,254,217.2,254z"/>
<path class="st0" d="M55.4,209c-13.9,0-25.2-10.9-25.2-24.4s11.3-24.4,25.2-24.4s25.2,10.9,25.2,24.4S69.3,209,55.4,209z
	 M55.4,174.2c-6.2,0-11.2,4.7-11.2,10.4c0,5.7,5,10.4,11.2,10.4c6.2,0,11.2-4.7,11.2-10.4C66.7,178.9,61.6,174.2,55.4,174.2z"/>
<path class="st0" d="M217.2,191.6h-104c-3.9,0-7-3.1-7-7c0-3.9,3.1-7,7-7h104c3.9,0,7,3.1,7,7C224.2,188.5,221.1,191.6,217.2,191.6z
	"/>
<path class="st0" d="M55.4,333.9c-13.9,0-25.2-10.9-25.2-24.4c0-13.4,11.3-24.4,25.2-24.4s25.2,10.9,25.2,24.4
	C80.7,322.9,69.3,333.9,55.4,333.9z M55.4,299.1c-6.2,0-11.2,4.7-11.2,10.4c0,5.7,5,10.4,11.2,10.4c6.2,0,11.2-4.7,11.2-10.4
	C66.7,303.7,61.6,299.1,55.4,299.1z"/>
<path class="st0" d="M387.2,316.5h-274c-3.9,0-7-3.1-7-7c0-3.9,3.1-7,7-7h274c3.9,0,7,3.1,7,7C394.2,313.3,391.1,316.5,387.2,316.5z
	"/>
<path class="st0" d="M386.8,253.2h-134c-3.9,0-7-3.1-7-7v-79c0-3.9,3.1-7,7-7h134c3.9,0,7,3.1,7,7v79
	C393.8,250.1,390.7,253.2,386.8,253.2z M259.8,239.2h120v-65h-120V239.2z"/>
</svg>
