<?xml version="1.0" encoding="utf-8"?>
<!-- Generator: Adobe Illustrator 23.0.1, SVG Export Plug-In . SVG Version: 6.00 Build 0)  -->
<svg version="1.1" id="Слой_1" xmlns="http://www.w3.org/2000/svg" xmlns:xlink="http://www.w3.org/1999/xlink" x="0px" y="0px"
	 viewBox="0 0 424 374.1" style="enable-background:new 0 0 424 374.1;" xml:space="preserve">
<style type="text/css">
	.st0{fill:#007261;}
</style>
<path class="st0" d="M167.3,272.1c-1.6,0-3.2-0.6-4.5-1.7l-45.3-38.6c-1.6-1.3-2.5-3.3-2.5-5.3c0-2.1,0.9-4,2.5-5.3l45.3-38.6
	c2.9-2.5,7.4-2.2,9.9,0.8c2.5,2.9,2.2,7.4-0.8,9.9l-39,33.2l39,33.2c2.9,2.5,3.3,6.9,0.8,9.9C171.2,271.3,169.3,272.1,167.3,272.1z"
	/>
<path class="st0" d="M256.7,272.1c-2,0-3.9-0.8-5.3-2.5c-2.5-2.9-2.2-7.4,0.8-9.9l39-33.2l-39-33.2c-2.9-2.5-3.3-6.9-0.8-9.9
	c2.5-2.9,6.9-3.3,9.9-0.8l45.3,38.6c1.6,1.3,2.5,3.3,2.5,5.3c0,2.1-0.9,4-2.5,5.3l-45.3,38.6C259.9,271.6,258.3,272.1,256.7,272.1z"
	/>
<path class="st0" d="M196,301.1c-0.5,0-1-0.1-1.5-0.2c-3.8-0.8-6.2-4.5-5.4-8.3l28.2-134c0.8-3.8,4.5-6.2,8.3-5.4
	c3.8,0.8,6.2,4.5,5.4,8.3l-28.2,134C202.1,298.8,199.2,301.1,196,301.1z"/>
<path class="st0" d="M377,374.1H47c-25.9,0-47-21.1-47-47V47C0,21.1,21.1,0,47,0h330c25.9,0,47,21.1,47,47v280.1
	C424,353,402.9,374.1,377,374.1z M47,14c-18.2,0-33,14.8-33,33v280.1c0,18.2,14.8,33,33,33h330c18.2,0,33-14.8,33-33V47
	c0-18.2-14.8-33-33-33H47z"/>
<path class="st0" d="M417,112.1H7c-3.9,0-7-3.1-7-7c0-3.9,3.1-7,7-7h410c3.9,0,7,3.1,7,7C424,109,420.9,112.1,417,112.1z"/>
<path class="st0" d="M119.6,78.6c-12.2,0-22.2-9.9-22.2-22.2c0-12.2,9.9-22.2,22.2-22.2c12.2,0,22.2,9.9,22.2,22.2
	C141.8,68.7,131.8,78.6,119.6,78.6z M119.6,48.3c-4.5,0-8.2,3.7-8.2,8.2s3.7,8.2,8.2,8.2c4.5,0,8.2-3.7,8.2-8.2
	S124.1,48.3,119.6,48.3z"/>
<path class="st0" d="M51.5,78.4c-12.2,0-22.2-9.9-22.2-22.2s9.9-22.2,22.2-22.2S73.7,44,73.7,56.2S63.8,78.4,51.5,78.4z M51.5,48.1
	c-4.5,0-8.2,3.7-8.2,8.2c0,4.5,3.7,8.2,8.2,8.2c4.5,0,8.2-3.7,8.2-8.2C59.7,51.7,56,48.1,51.5,48.1z"/>
<path class="st0" d="M187.7,78.8c-12.2,0-22.1-9.9-22.1-22.2c0-12.2,9.9-22.1,22.1-22.1c12.2,0,22.2,9.9,22.2,22.1
	C209.8,68.9,199.9,78.8,187.7,78.8z M187.7,48.5c-4.5,0-8.1,3.7-8.1,8.2s3.7,8.2,8.1,8.2c4.5,0,8.2-3.7,8.2-8.2
	S192.2,48.5,187.7,48.5z"/>
</svg>
