<?xml version="1.0" encoding="utf-8"?>
<!-- Generator: Adobe Illustrator 23.0.1, SVG Export Plug-In . SVG Version: 6.00 Build 0)  -->
<svg version="1.1" id="Capa_1" xmlns="http://www.w3.org/2000/svg" xmlns:xlink="http://www.w3.org/1999/xlink" x="0px" y="0px"
	 viewBox="0 0 512 472" style="enable-background:new 0 0 512 472;" xml:space="preserve">
<style type="text/css">
	.st0{fill:#FFFFFF;}
</style>
<g>
	<g>
		<path class="st0" d="M502,398h-7V144c0-26.6-20.8-48.3-47-49.9V42c0-23.2-18.8-42-42-42H106C82.8,0,64,18.8,64,42v52.1
			c-26.2,1.6-47,23.3-47,49.9v48c0,5.5,4.5,10,10,10s10-4.5,10-10v-48c0-15.5,11.9-28.3,27-29.9V322c0,23.2,18.8,42,42,42h300
			c23.2,0,42-18.8,42-42V114.2c15.1,1.5,27,14.3,27,29.9v254H37V273.8c0-5.5-4.5-10-10-10s-10,4.5-10,10V398h-7c-5.5,0-10,4.5-10,10
			v14c0,27.6,22.4,50,50,50h412c27.6,0,50-22.4,50-50v-14C512,402.5,507.5,398,502,398z M428,322c0,12.1-9.9,22-22,22H106
			c-12.1,0-22-9.9-22-22V92h344V322z M428,72H84V42c0-12.1,9.9-22,22-22h300c12.1,0,22,9.9,22,22V72z M492,422c0,16.5-13.5,30-30,30
			H50c-16.5,0-30-13.5-30-30v-4h6.8c0.1,0,0.2,0,0.2,0h458c0.1,0,0.2,0,0.2,0h6.8V422z"/>
	</g>
</g>
<g>
	<g>
		<path class="st0" d="M274,425h-36.1c-5.5,0-10,4.5-10,10s4.5,10,10,10H274c5.5,0,10-4.5,10-10S279.5,425,274,425z"/>
	</g>
</g>
<g>
	<g>
		<path class="st0" d="M34.1,224.4c-1.9-1.9-4.4-2.9-7.1-2.9s-5.2,1.1-7.1,2.9s-2.9,4.4-2.9,7.1s1.1,5.2,2.9,7.1
			c1.9,1.9,4.4,2.9,7.1,2.9s5.2-1.1,7.1-2.9c1.9-1.9,2.9-4.4,2.9-7.1S35.9,226.3,34.1,224.4z"/>
	</g>
</g>
<g>
	<g>
		<path class="st0" d="M398,36H230.9c-5.5,0-10,4.5-10,10s4.5,10,10,10H398c5.5,0,10-4.5,10-10S403.6,36,398,36z"/>
	</g>
</g>
<g>
	<g>
		<path class="st0" d="M150.6,38.9c-1.9-1.9-4.4-2.9-7.1-2.9c-2.6,0-5.2,1.1-7.1,2.9c-1.9,1.9-2.9,4.4-2.9,7.1
			c0,2.6,1.1,5.2,2.9,7.1s4.4,2.9,7.1,2.9c2.6,0,5.2-1.1,7.1-2.9c1.9-1.9,2.9-4.4,2.9-7.1S152.5,40.8,150.6,38.9z"/>
	</g>
</g>
<g>
	<g>
		<path class="st0" d="M121,38.9c-1.9-1.9-4.4-2.9-7.1-2.9c-2.6,0-5.2,1.1-7.1,2.9s-2.9,4.4-2.9,7.1c0,2.6,1.1,5.2,2.9,7.1
			s4.4,2.9,7.1,2.9c2.6,0,5.2-1.1,7.1-2.9c1.9-1.9,2.9-4.4,2.9-7.1S122.9,40.8,121,38.9z"/>
	</g>
</g>
<g>
	<g>
		<path class="st0" d="M180.2,38.9c-1.9-1.9-4.4-2.9-7.1-2.9s-5.2,1.1-7.1,2.9c-1.9,1.9-2.9,4.4-2.9,7.1c0,2.6,1.1,5.2,2.9,7.1
			s4.4,2.9,7.1,2.9s5.2-1.1,7.1-2.9c1.9-1.9,2.9-4.4,2.9-7.1S182.1,40.8,180.2,38.9z"/>
	</g>
</g>
<g>
	<g>
		<path class="st0" d="M175.6,167.9l26.7-26.7c3.9-3.9,3.9-10.2,0-14.1c-3.9-3.9-10.2-3.9-14.1,0l-33.7,33.7
			c-3.9,3.9-3.9,10.2,0,14.1l33.7,33.7c2,2,4.5,2.9,7.1,2.9s5.1-1,7.1-2.9c3.9-3.9,3.9-10.2,0-14.1L175.6,167.9z"/>
	</g>
</g>
<g>
	<g>
		<path class="st0" d="M357.6,160.8l-33.7-33.7c-3.9-3.9-10.2-3.9-14.1,0c-3.9,3.9-3.9,10.2,0,14.1l26.7,26.7l-26.7,26.7
			c-3.9,3.9-3.9,10.2,0,14.1c2,2,4.5,2.9,7.1,2.9s5.1-1,7.1-2.9l33.7-33.7C361.5,171.1,361.5,164.7,357.6,160.8z"/>
	</g>
</g>
<g>
	<g>
		<path class="st0" d="M284.9,118.7c-4.8-2.8-10.9-1.2-13.7,3.6l-47.6,81.1c-2.8,4.8-1.2,10.9,3.6,13.7c1.6,0.9,3.3,1.4,5.1,1.4
			c3.4,0,6.8-1.8,8.6-4.9l47.6-81.1C291.2,127.7,289.7,121.5,284.9,118.7z"/>
	</g>
</g>
<g>
	<g>
		<path class="st0" d="M378.5,246H212.2c-5.5,0-10,4.5-10,10s4.5,10,10,10h166.3c5.5,0,10-4.5,10-10S384,246,378.5,246z"/>
	</g>
</g>
<g>
	<g>
		<path class="st0" d="M173.1,246h-49c-5.5,0-10,4.5-10,10s4.5,10,10,10h49c5.5,0,10-4.5,10-10S178.7,246,173.1,246z"/>
	</g>
</g>
<g>
	<g>
		<path class="st0" d="M340.2,294H124.2c-5.5,0-10,4.5-10,10s4.5,10,10,10h216.1c5.5,0,10-4.5,10-10S345.8,294,340.2,294z"/>
	</g>
</g>
<g>
	<g>
		<path class="st0" d="M385.5,296.9c-1.9-1.9-4.4-2.9-7.1-2.9c-2.6,0-5.2,1.1-7.1,2.9c-1.9,1.9-2.9,4.4-2.9,7.1s1.1,5.2,2.9,7.1
			c1.9,1.9,4.4,2.9,7.1,2.9s5.2-1.1,7.1-2.9c1.9-1.9,2.9-4.4,2.9-7.1S387.4,298.8,385.5,296.9z"/>
	</g>
</g>
</svg>
