<?xml version="1.0" encoding="utf-8"?>
<!-- Generator: Adobe Illustrator 23.0.1, SVG Export Plug-In . SVG Version: 6.00 Build 0)  -->
<svg version="1.1" id="Слой_1" xmlns="http://www.w3.org/2000/svg" xmlns:xlink="http://www.w3.org/1999/xlink" x="0px" y="0px"
	 viewBox="0 0 424 374.1" style="enable-background:new 0 0 424 374.1;" xml:space="preserve">
<style type="text/css">
	.st0{fill:#007261;}
	.st1{fill:none;}
</style>
<path class="st0" d="M377,374.1H47c-25.9,0-47-21.1-47-47V47C0,21.1,21.1,0,47,0h330c25.9,0,47,21.1,47,47v280.1
	C424,353,402.9,374.1,377,374.1z M47,14c-18.2,0-33,14.8-33,33v280.1c0,18.2,14.8,33,33,33h330c18.2,0,33-14.8,33-33V47
	c0-18.2-14.8-33-33-33H47z"/>
<path class="st0" d="M417,272.1H7c-3.9,0-7-3.1-7-7s3.1-7,7-7h410c3.9,0,7,3.1,7,7S420.9,272.1,417,272.1z"/>
<g>
	<rect x="102" y="64" class="st1" width="223" height="151"/>
	<path class="st0" d="M120.2,145.7c0-3.7-1.4-6.5-4.2-8.4c-2.8-1.9-6.8-2.9-12.1-2.9v-15.2c5.3,0,9.4-0.9,12.1-2.8
		c2.8-1.9,4.1-4.5,4.1-8v-0.5V87.6c0-6.5,2.1-11,6.2-13.7c4.1-2.6,11.3-4,21.6-4v14.3c-4.2,0.1-7.1,0.9-8.7,2.4
		c-1.6,1.5-2.4,3.7-2.4,6.5v19c-0.3,8-5.2,12.7-14.9,14.1v0.8c9.9,1.5,14.9,6,14.9,13.5v0.6v19c0,2.9,0.8,5.1,2.3,6.5
		c1.6,1.5,4.5,2.3,8.7,2.4v14.3c-10.3,0-17.5-1.3-21.6-4c-4.1-2.6-6.2-7.2-6.2-13.7V145.7z"/>
	<path class="st0" d="M160.7,153.7c0-3.6,1-6.2,2.9-8.1c1.9-1.8,4.7-2.7,8.3-2.7c3.5,0,6.2,0.9,8.2,2.8c1.9,1.9,2.9,4.5,2.9,8
		c0,3.3-1,6-2.9,7.9c-1.9,1.9-4.7,2.9-8.1,2.9c-3.6,0-6.3-0.9-8.3-2.8C161.6,159.8,160.7,157.1,160.7,153.7z"/>
	<path class="st0" d="M197.7,153.7c0-3.6,1-6.2,2.9-8.1c1.9-1.8,4.7-2.7,8.3-2.7c3.5,0,6.2,0.9,8.2,2.8c1.9,1.9,2.9,4.5,2.9,8
		c0,3.3-1,6-2.9,7.9c-1.9,1.9-4.7,2.9-8.1,2.9c-3.6,0-6.3-0.9-8.3-2.8C198.7,159.8,197.7,157.1,197.7,153.7z"/>
	<path class="st0" d="M234.8,153.7c0-3.6,1-6.2,2.9-8.1c1.9-1.8,4.7-2.7,8.3-2.7c3.5,0,6.2,0.9,8.2,2.8c1.9,1.9,2.9,4.5,2.9,8
		c0,3.3-1,6-2.9,7.9c-1.9,1.9-4.7,2.9-8.1,2.9c-3.6,0-6.3-0.9-8.3-2.8C235.8,159.8,234.8,157.1,234.8,153.7z"/>
	<path class="st0" d="M297.4,165.7c0,4.7-0.9,8.3-2.6,10.7c-1.7,2.4-4.6,4.2-8.6,5.3c-4,1.1-9.5,1.7-16.6,1.7V169
		c4.2-0.1,7.1-0.8,8.7-2.3c1.6-1.4,2.4-3.7,2.4-6.7v-19v-0.7c0-3.6,1.2-6.6,3.7-8.9c2.5-2.3,6.2-3.8,11-4.5v-0.8
		c-9.6-1.4-14.5-6.1-14.8-14.1v-19c0-3-0.8-5.2-2.3-6.6c-1.6-1.4-4.5-2.2-8.7-2.3V70c7.1,0,12.6,0.6,16.6,1.7c4,1.1,6.9,2.9,8.6,5.3
		c1.7,2.4,2.6,6,2.6,10.6v20.2v0.6c0,3.6,1.3,6.2,3.9,8c2.6,1.8,6.7,2.7,12.3,2.7v15.2c-5.3,0-9.3,0.9-12.1,2.6
		c-2.8,1.7-4.2,4.7-4.2,8.8V165.7z"/>
</g>
<g>
	<rect x="163" y="287" class="st1" width="118" height="55.5"/>
	<path class="st0" d="M189.7,287h16v28c0,5.9-0.5,10.4-1.6,13.4c-1,3.1-3.1,5.7-6.3,7.8c-3.2,2.1-7.2,3.2-12.1,3.2
		c-5.2,0-9.2-0.7-12.1-2.1c-2.9-1.4-5.1-3.5-6.6-6.2c-1.6-2.7-2.5-6.1-2.8-10l15.2-2.1c0,2.3,0.2,4,0.6,5.1c0.4,1.1,1,2,1.9,2.7
		c0.6,0.4,1.5,0.7,2.6,0.7c1.8,0,3.1-0.7,3.9-2c0.8-1.3,1.2-3.6,1.2-6.7V287z"/>
	<path class="st0" d="M213.5,321.5l15.2-0.9c0.3,2.5,1,4.3,2,5.6c1.6,2.1,4,3.1,7,3.1c2.3,0,4-0.5,5.3-1.6s1.8-2.3,1.8-3.7
		c0-1.3-0.6-2.5-1.8-3.6s-3.9-2.1-8.2-3c-7-1.6-12-3.7-14.9-6.3c-3-2.6-4.5-5.9-4.5-9.9c0-2.6,0.8-5.2,2.3-7.5s3.8-4.2,6.9-5.6
		s7.3-2,12.7-2c6.6,0,11.6,1.2,15.1,3.7s5.5,6.3,6.2,11.7l-15,0.9c-0.4-2.3-1.2-4-2.5-5.1s-3-1.6-5.3-1.6c-1.9,0-3.2,0.4-4.2,1.2
		s-1.4,1.7-1.4,2.9c0,0.8,0.4,1.6,1.2,2.2c0.8,0.7,2.5,1.3,5.3,1.9c7,1.5,11.9,3,15,4.6s5.2,3.4,6.6,5.7s2.1,4.8,2.1,7.6
		c0,3.3-0.9,6.4-2.7,9.1s-4.4,4.9-7.7,6.3s-7.4,2.2-12.4,2.2c-8.8,0-14.8-1.7-18.2-5.1S214,326.7,213.5,321.5z"/>
</g>
</svg>
