<?xml version="1.0" encoding="utf-8"?>
<!-- Generator: Adobe Illustrator 23.0.1, SVG Export Plug-In . SVG Version: 6.00 Build 0)  -->
<svg version="1.1" id="Слой_1" xmlns="http://www.w3.org/2000/svg" xmlns:xlink="http://www.w3.org/1999/xlink" x="0px" y="0px"
	 viewBox="0 0 480 432" style="enable-background:new 0 0 480 432;" xml:space="preserve">
<style type="text/css">
	.st0{fill:#007261;}
</style>
<path class="st0" d="M472,80c4.4,0,8-3.6,8-8V40c0-22.1-17.9-40-40-40H40C17.9,0,0,17.9,0,40v256c0,22.1,17.9,40,40,40h129.6l-30,48
	H112c-22.1,0-40,17.9-40,40c0,4.4,3.6,8,8,8h320c4.4,0,8-3.6,8-8c0-22.1-17.9-40-40-40h-27.6l-30-48H440c22.1,0,40-17.9,40-40V128
	c0-4.4-3.6-8-8-8s-8,3.6-8,8v128H96c-4.4,0-8,3.6-8,8s3.6,8,8,8h368v24c0,13.3-10.7,24-24,24H40c-13.3,0-24-10.7-24-24v-24h37.4
	c4.4,0,8-3.6,8-8s-3.6-8-8-8H16V40c0-13.3,10.7-24,24-24h400c13.3,0,24,10.7,24,24v32C464,76.4,467.6,80,472,80z M390.6,416H89.4
	c3.4-9.6,12.5-16,22.6-16h256C378.2,400,387.3,406.4,390.6,416z M291.6,336l30,48H158.4l30-48H291.6z"/>
<path class="st0" d="M416,296c0,4.4-3.6,8-8,8s-8-3.6-8-8s3.6-8,8-8S416,291.6,416,296z"/>
<path class="st0" d="M384,296c0,4.4-3.6,8-8,8s-8-3.6-8-8s3.6-8,8-8S384,291.6,384,296z"/>
<path class="st0" d="M152,216c4.4,0,8-3.6,8-8v-13.4c2.8-1.3,5.5-2.8,8-4.5l11.7,6.7c3.8,2.2,8.7,0.8,10.9-3l16-27.7
	c1.1-1.8,1.4-4,0.8-6.1s-1.9-3.8-3.7-4.9l-11.7-6.7c0-1.5,0-3,0-4.5s0-3,0-4.5l11.6-6.7c1.8-1.1,3.2-2.8,3.7-4.9
	c0.5-2.1,0.2-4.2-0.8-6.1l-16-27.7c-2.2-3.8-7.1-5.1-10.9-3L168,97.9c-2.5-1.7-5.2-3.2-8-4.5V80c0-4.4-3.6-8-8-8h-32
	c-4.4,0-8,3.6-8,8v13.4c-2.8,1.3-5.5,2.8-8,4.5l-11.7-6.7c-3.8-2.2-8.7-0.8-10.9,3l-16,27.7c-1.1,1.8-1.4,4-0.8,6.1s1.9,3.8,3.7,4.9
	l11.6,6.7v4.5v4.5l-11.6,6.7c-1.8,1.1-3.2,2.8-3.7,4.9s-0.2,4.2,0.8,6.1l16,27.7c2.2,3.8,7.1,5.1,10.9,3l11.7-6.7
	c2.5,1.7,5.2,3.2,8,4.5V208c0,4.4,3.6,8,8,8s8-3.6,8-8v-18.8c0-3.4-2.2-6.4-5.4-7.5c-4.6-1.6-8.9-4.1-12.6-7.3
	c-2.6-2.2-6.3-2.6-9.2-0.9l-9.3,5.4l-8-13.9l9.3-5c3-1.7,4.5-5.1,3.9-8.4c-1-4.8-1-9.8,0-14.6c0.9-3.6-0.7-7.3-3.9-9l-9.3-5.4
	l8-13.9l9.3,5.4c2.9,1.7,6.6,1.3,9.2-0.9c3.7-3.2,8-5.6,12.6-7.3c3.2-1.1,5.3-4.1,5.4-7.5V88h16v10.8c0,3.4,2.2,6.4,5.4,7.5
	c4.6,1.6,8.9,4.1,12.6,7.3c2.6,2.2,6.3,2.6,9.2,0.9l9.3-5.4l8,13.9l-9.3,5c-3,1.7-4.5,5.1-3.9,8.4c1,4.8,1,9.8,0,14.6
	c-0.9,3.6,0.7,7.3,3.9,9l9.3,5.4l-8,13.9l-9.3-5.4c-2.9-1.7-6.6-1.3-9.2,0.9c-3.7,3.2-8,5.6-12.6,7.3c-3.2,1.1-5.3,4.1-5.4,7.5V208
	C144,212.4,147.6,216,152,216z"/>
<path class="st0" d="M160,144c0-13.3-10.7-24-24-24s-24,10.7-24,24s10.7,24,24,24S160,157.3,160,144z M136,152c-4.4,0-8-3.6-8-8
	s3.6-8,8-8s8,3.6,8,8S140.4,152,136,152z"/>
<path class="st0" d="M312,144c0,17.7,14.3,32,32,32s32-14.3,32-32s-14.3-32-32-32S312,126.3,312,144z M360,144c0,8.8-7.2,16-16,16
	s-16-7.2-16-16s7.2-16,16-16S360,135.2,360,144z"/>
<path class="st0" d="M439.1,116.8l-24-41.6c-1-1.9-2.7-3.3-4.8-3.9c-2-0.6-4.2-0.4-6.1,0.7L384,84.1c-2.6-1.7-5.2-3.2-8-4.6V56
	c0-4.4-3.6-8-8-8h-48c-4.4,0-8,3.6-8,8v23.5c-2.8,1.4-5.4,2.9-8,4.6L283.8,72c-3.8-2.2-8.7-0.9-10.9,2.9l-24,41.6
	c-1.3,1.9-1.7,4.2-1.1,6.4c0.5,2.2,2,4.1,4,5.1l20.2,11.5v4.5v4.5L251.8,160c-3.8,2.2-5.1,7.1-2.9,10.9l24,41.6
	c2.2,3.8,7.1,5.1,10.9,2.9l20.2-11.4c2.6,1.7,5.2,3.2,8,4.6V232c0,4.4,3.6,8,8,8h48c4.4,0,8-3.6,8-8v-23.5c2.8-1.4,5.4-2.9,8-4.6
	l20.2,12.1c3.8,2.2,8.7,0.9,10.9-2.9c1.1-1.8,1.4-4,0.8-6.1c-0.5-2.1-1.9-3.8-3.7-4.9l-24.9-14.3c-2.8-1.7-6.4-1.4-9,0.6
	c-4.1,3.3-8.6,6-13.4,8c-3,1.2-4.9,4.1-5,7.4V224h-32v-20.7c0-3.2-2-6.1-5-7.4c-4.8-2-9.4-4.7-13.4-8c-2.6-2-6.1-2.2-9-0.6
	l-17.9,10.3l-16-27.7l17.9-10c2.8-1.6,4.4-4.8,4-8c-0.9-5.1-0.9-10.4,0-15.5c0.4-3.2-1.2-6.4-4-8l-17.9-10.4l16-27.7l17.9,10.3
	c2.8,1.7,6.4,1.4,9-0.6c4.1-3.3,8.6-6,13.4-8c3-1.2,4.9-4.1,5-7.4V64h32v20.7c0,3.2,2,6.1,5,7.4c4.8,2,9.4,4.7,13.4,8
	c2.6,2,6.1,2.2,9,0.6l17.9-10.3l16,27.7l-17.9,10c-2.8,1.6-4.4,4.8-4,8c0.9,5.1,0.9,10.4,0,15.5c-0.4,3.2,1.2,6.4,4,8l24.9,14.4
	c3.8,2,8.5,0.6,10.6-3.1s1-8.5-2.6-10.8L416,148.5c0-1.5,0-3,0-4.5s0-3,0-4.5l20.2-11.5c1.9-1.1,3.3-2.9,3.8-5
	C440.6,120.9,440.3,118.7,439.1,116.8z"/>
<path class="st0" d="M184,62.7c1.5,0,2.9-0.4,4.2-1.2c22-13.6,48.8-17.1,73.6-9.6c2.1,0.7,4.4,0.5,6.3-0.5c1.9-1,3.4-2.8,4-4.9
	c1.2-4.2-1.2-8.7-5.4-9.9c-29.2-8.9-60.8-4.7-86.7,11.4c-1.8,1.1-3.1,2.9-3.6,5c-0.5,2.1-0.1,4.3,1,6.1
	C178.7,61.4,181.3,62.7,184,62.7z"/>
<path class="st0" d="M179.8,224c16.9,10.4,36.2,15.9,56,16c7.3,0,14.6-0.8,21.7-2.4c3-0.4,5.5-2.5,6.4-5.3c1-2.8,0.3-6-1.8-8.1
	c-2.1-2.2-5.2-3-8-2.2c-6,1.3-12.1,2-18.2,2c-16.9,0-33.6-4.7-48-13.5c-3.8-2.3-8.7-1.1-11,2.6C174.8,216.9,176.1,221.8,179.8,224z"
	/>
</svg>
