<?xml version="1.0" encoding="utf-8"?>
<!-- Generator: Adobe Illustrator 23.0.1, SVG Export Plug-In . SVG Version: 6.00 Build 0)  -->
<svg version="1.1" id="Capa_1" xmlns="http://www.w3.org/2000/svg" xmlns:xlink="http://www.w3.org/1999/xlink" x="0px" y="0px"
	 viewBox="0 0 480 480" style="enable-background:new 0 0 480 480;" xml:space="preserve">
<style type="text/css">
	.st0{fill:#007261;}
</style>
<g>
	<g>
		<path class="st0" d="M456,0H168c-13.3,0-24,10.7-24,24v176H40c-13.3,0-24,10.7-24,24v160H8c-4.4,0-8,3.6-8,8c0,22.1,17.9,40,40,40
			h256c22.1,0,40-17.9,40-39.9V392c0-4.4-3.6-8-8-8h-8v-88h88c4.4,0,8-3.6,8-8s-3.6-8-8-8h-42l-11.4-40H456c13.3,0,24-10.7,24-24V24
			C480,10.7,469.3,0,456,0z M32,224c0-4.4,3.6-8,8-8h256c4.4,0,8,3.6,8,8v160H192c-4.4,0-8,3.6-8,8h-32c0-4.4-3.6-8-8-8H32V224z
			 M313,408.9c-4.5,4.5-10.6,7-17,7.1H40c-10.2,0-19.2-6.4-22.6-16H136c0,4.4,3.6,8,8,8h48c4.4,0,8-3.6,8-8h118.6
			C317.4,403.4,315.5,406.4,313,408.9z M320,280v-40h18l11.4,40H320z M464,216c0,4.4-3.6,8-8,8H320c0-13.3-10.7-24-24-24H160V24
			c0-4.4,3.6-8,8-8h288c4.4,0,8,3.6,8,8V216z"/>
	</g>
</g>
<g>
	<g>
		<path class="st0" d="M440,304h-64c-13.3,0-24,10.7-24,24v128c0,13.3,10.7,24,24,24h64c13.3,0,24-10.7,24-24V328
			C464,314.7,453.3,304,440,304z M448,456c0,4.4-3.6,8-8,8h-64c-4.4,0-8-3.6-8-8V328c0-4.4,3.6-8,8-8h64c4.4,0,8,3.6,8,8V456z"/>
	</g>
</g>
</svg>
